<?xml version="1.0" encoding="UTF-8"?>
<svg width="40px" height="40px" viewBox="0 0 40 40" version="1.1" xmlns="http://www.w3.org/2000/svg" xmlns:xlink="http://www.w3.org/1999/xlink">
    <!-- Generator: Sketch 48.2 (47327) - http://www.bohemiancoding.com/sketch -->
    <title>account and payments</title>
    <desc>Created with Sketch.</desc>
    <defs></defs>
    <g id="Register-Screen" stroke="none" stroke-width="1" fill="none" fill-rule="evenodd" transform="translate(-694.000000, -586.000000)">
        <g id="account-and-payments" transform="translate(694.000000, 586.000000)">
            <path d="M12.9543385,0.625 C11.9475692,0.625 10.9851077,0.81 10.0872615,1.133125 C10.9235692,5.065 14.3635692,8.011875 18.4841846,8.011875 C19.4915692,8.011875 20.4546462,7.82625 21.3518769,7.50375 C20.5155692,3.5725 17.0755692,0.625 12.9543385,0.625" id="Fill-1" fill="#D0EAF7"></path>
            <path d="M9.85815385,1.21825 C6.98984615,2.34575 4.87046154,4.985125 4.44584615,8.178875 C7.41630769,7.210125 9.60953846,4.492 9.85815385,1.21825" id="Fill-3" fill="#D0EAF7"></path>
            <path d="M25.1538462,26.0174375 L25.1538462,24.4730625 C25.1538462,23.3999375 24.8566154,22.3480625 24.2024615,21.5043125 C23.7261538,20.8905625 23.0670769,20.1811875 22.1913846,19.5355625 L10.5956923,21.1899375 C9.52923077,21.3430625 8.78092308,22.2961875 8.92184615,23.3211875 L9.592,28.1599375 C10.6461538,28.2611875 11.7655385,28.3261875 12.9544615,28.3261875 C21.0683077,28.3261875 25.1538462,26.0174375 25.1538462,26.0174375" id="Fill-5" fill="#E6E6E6"></path>
            <path d="M5.012,8.64075 C4.98615385,8.900125 4.97384615,9.132625 4.97384615,9.355125 C4.97384615,13.823875 8.55415385,17.4595 12.9541538,17.4595 C17.3553846,17.4595 20.9350769,13.823875 20.9350769,9.355125 C20.9350769,9.010125 20.9123077,8.66075 20.8667692,8.312 C20.0815385,8.527625 19.2833846,8.637 18.4846154,8.637 C14.8507692,8.637 11.5892308,6.4295 10.1129231,3.17325 C9.34615385,5.67575 7.48646154,7.70325 5.012,8.64075 M12.9541538,18.7095 C7.87538462,18.7095 3.74307692,14.51325 3.74307692,9.355125 C3.74307692,8.972625 3.77261538,8.572625 3.836,8.09575 L3.88769231,7.7045 L4.25753846,7.583875 C7.06061538,6.670125 9.01815385,4.152 9.24461538,1.170125 L9.27476923,0.77825 L9.63538462,0.63575 C9.71723077,0.603875 9.79969231,0.573875 9.88276923,0.543875 L10.5412308,0.308875 L10.6889231,1.001375 C11.476,4.701375 14.7547692,7.387 18.4846154,7.387 C19.3793846,7.387 20.2747692,7.227625 21.1467692,6.9145 L21.8052308,6.677625 L21.9535385,7.371375 C22.0944615,8.03075 22.1658462,8.698875 22.1658462,9.355125 C22.1658462,14.51325 18.0335385,18.7095 12.9541538,18.7095" id="Fill-7" fill="#003366"></path>
            <path d="M10.8257231,1.550875 C11.8060308,4.964625 14.9414154,7.387125 18.4841846,7.387125 C19.1974154,7.387125 19.9118769,7.285875 20.6134154,7.085875 C19.6331077,3.67275 16.4971077,1.25025 12.9543385,1.25025 C12.2404923,1.25025 11.5266462,1.350875 10.8257231,1.550875 M18.4841846,8.637125 C14.1789538,8.637125 10.3949538,5.537125 9.48541538,1.26525 L9.37156923,0.728375 L9.88172308,0.544625 C10.8841846,0.183375 11.9174154,0.00025 12.9543385,0.00025 C17.2601846,0.00025 21.0441846,3.10025 21.9537231,7.3715 L22.0681846,7.909625 L21.5574154,8.09275 C20.5537231,8.454 19.5192615,8.637125 18.4841846,8.637125" id="Fill-9" fill="#003366"></path>
            <path d="M9.07692308,2.2790625 C7.22030769,3.3284375 5.85230769,5.0878125 5.27938462,7.1615625 C7.20184615,6.1903125 8.59076923,4.4040625 9.07692308,2.2790625 Z M3.70523077,9.0765625 L3.83569231,8.0953125 C4.28430769,4.7234375 6.50646154,1.8653125 9.63569231,0.6353125 L10.5470769,0.2778125 L10.472,1.2665625 C10.2067692,4.7571875 7.91507692,7.7040625 4.63384615,8.7740625 L3.70523077,9.0765625 Z" id="Fill-11" fill="#003366"></path>
            <path d="M25.1538462,26.0174375 L25.16,26.0174375 L25.1538462,26.0174375 Z M12.9544615,28.9511875 C5.56184615,28.9511875 0.569230769,26.6824375 0.360615385,26.5861875 L0,26.4199375 L0,24.4730625 C0,23.2743125 0.412307692,22.0830625 1.16,21.1180625 C2.36861538,19.5599375 5.12676923,16.9461875 10.0246154,16.9461875 C10.3649231,16.9461875 10.64,17.2261875 10.64,17.5711875 C10.64,17.9168125 10.3649231,18.1961875 10.0246154,18.1961875 C5.64676923,18.1961875 3.19692308,20.5111875 2.12676923,21.8911875 C1.54953846,22.6368125 1.23076923,23.5543125 1.23076923,24.4730625 L1.23076923,25.5999375 C2.49046154,26.1061875 6.94153846,27.7011875 12.9544615,27.7011875 C19.5723077,27.7011875 23.4516923,26.1374375 24.5384615,25.6286875 L24.5384615,24.4730625 C24.5384615,23.4755625 24.2547692,22.5830625 23.7187692,21.8905625 C22.4116923,20.2055625 19.9901538,18.1961875 15.8787692,18.1961875 C15.5384615,18.1961875 15.2633846,17.9168125 15.2633846,17.5711875 C15.2633846,17.2261875 15.5384615,16.9461875 15.8787692,16.9461875 C20.4836923,16.9461875 23.2098462,19.2149375 24.6855385,21.1174375 C25.3950769,22.0318125 25.7692308,23.1918125 25.7692308,24.4730625 L25.7692308,26.3849375 L25.4529231,26.5636875 C25.2806154,26.6611875 21.1341538,28.9511875 12.9544615,28.9511875 Z" id="Fill-13" fill="#003366"></path>
            <path d="M13.1243692,37.77525 C13.2659077,38.799625 14.2449846,39.507125 15.3114462,39.354 L37.1120615,36.24275 C38.1785231,36.090875 38.9274462,35.1365 38.7852923,34.11275 L37.0449846,21.533375 C36.9034462,20.508375 35.9243692,19.8015 34.8579077,19.953375 L13.0572923,23.06525 C11.9908308,23.21775 11.2419077,24.170875 11.3834462,25.195875 L13.1243692,37.77525 Z" id="Fill-15" fill="#A0D5EE"></path>
            <path d="M38.7854769,34.1125625 L37.0451692,21.5331875 C36.9030154,20.5081875 35.9245538,19.8019375 34.8580923,19.9538125 L13.0568615,23.0650625 C12.0377846,23.2113125 11.3171692,24.0906875 11.3793231,25.0631875 C11.5208615,25.0081875 11.6691692,24.9625625 11.8260923,24.9400625 L33.6273231,21.8288125 C34.6937846,21.6769375 35.6722462,22.3831875 35.8144,23.4081875 L37.5547077,35.9875625 C37.5614769,36.0319375 37.5565538,36.0756875 37.5596308,36.1200625 C38.3774769,35.8019375 38.9060923,34.9850625 38.7854769,34.1125625" id="Fill-17" fill="#D0EAF7"></path>
            <path d="M5.61058462,28.031625 C5.27212308,28.031625 4.99766154,27.75475 4.9952,27.411 L4.97673846,24.45225 C4.97427692,24.10725 5.24812308,23.826 5.58781538,23.8235 L5.59212308,23.8235 C5.93058462,23.8235 6.20504615,24.100375 6.20750769,24.444125 L6.22596923,27.40225 C6.22843077,27.747875 5.95458462,28.029125 5.61489231,28.031625 L5.61058462,28.031625 Z" id="Fill-19" fill="#003366"></path>
            <path d="M12.9615385,20.7855 C11.1203077,20.7855 9.53384615,19.452375 9.18984615,17.616125 C9.12646154,17.277375 9.34553846,16.949875 9.67969231,16.8855 C10.0144615,16.82175 10.3356923,17.04425 10.3990769,17.383 C10.6329231,18.6305 11.7104615,19.5355 12.9615385,19.5355 C14.2261538,19.5355 15.3055385,18.618 15.5276923,17.354875 C15.588,17.014875 15.9067692,16.786125 16.2415385,16.84925 C16.5763077,16.9105 16.7990769,17.234875 16.7393846,17.57425 C16.4113846,19.4355 14.8224615,20.7855 12.9615385,20.7855" id="Fill-21" fill="#003366"></path>
            <path d="M32.2344,34.046 C32.2842462,34.404125 32.6134769,34.656625 32.9660923,34.606 L35.5322462,34.23975 C35.8867077,34.189125 36.1334769,33.856 36.0836308,33.496625 L35.9033231,32.1935 C35.8540923,31.83475 35.5248615,31.5835 35.1716308,31.6335 L32.6060923,31.99975 C32.2510154,32.050375 32.0042462,32.382875 32.0540923,32.742875 L32.2344,34.046 Z" id="Fill-23" fill="#D0EAF7"></path>
            <path d="M13.7337846,37.688 C13.7787077,38.012375 13.9540923,38.29925 14.2279385,38.49675 C14.5122462,38.70175 14.8636308,38.78675 15.2254769,38.7355 L37.0267077,35.623625 C37.3860923,35.572375 37.7030154,35.39175 37.9208615,35.114875 C38.1307077,34.848 38.2211692,34.523625 38.1762462,34.199875 L36.4359385,21.619875 C36.3417846,20.938625 35.6704,20.4705 34.9436308,20.572375 L13.1430154,23.68425 C12.4144,23.788625 11.8993231,24.427375 11.9928615,25.10925 L13.7337846,37.688 Z M15.0193231,39.999875 C14.4784,39.999875 13.9547077,39.833625 13.5147077,39.5155 C12.9620923,39.11675 12.6076308,38.529875 12.5153231,37.862375 L10.7737846,25.283 C10.5860923,23.91925 11.5713231,22.64675 12.9713231,22.446125 L34.7725538,19.334875 C36.1817846,19.138 37.4654769,20.083 37.6544,21.446125 L39.3947077,34.026125 C39.4876308,34.693 39.3054769,35.35675 38.8827077,35.89425 C38.4679385,36.422375 37.8704,36.7655 37.1977846,36.86175 L15.3971692,39.973 C15.2704,39.99175 15.1448615,39.999875 15.0193231,39.999875 Z" id="Fill-25" fill="#003366"></path>
            <path d="M18.86,27.2204375 C19.0341538,28.4798125 18.1707692,29.6441875 16.9301538,29.8210625 C15.6907692,29.9979375 14.5436923,29.1210625 14.3695385,27.8610625 C14.1953846,26.6023125 15.0587692,25.4373125 16.2993846,25.2604375 C17.5393846,25.0835625 18.6858462,25.9604375 18.86,27.2204375" id="Fill-27" fill="#003366"></path>
            <path d="M21.9801846,26.774875 C22.1543385,28.034875 21.2909538,29.19925 20.0503385,29.376125 C18.8109538,29.553 17.6638769,28.6755 17.4897231,27.4155 C17.3155692,26.15675 18.1789538,24.99175 19.4195692,24.814875 C20.6595692,24.638 21.8060308,25.5155 21.9801846,26.774875" id="Fill-29" fill="#003366"></path>
            <path d="M15.6256,32.8405625 C15.3234462,32.8405625 15.0600615,32.6149375 15.0169846,32.3024375 C14.9696,31.9605625 15.2034462,31.6449375 15.5400615,31.5968125 L18.7480615,31.1386875 C19.0859077,31.0868125 19.3954462,31.3293125 19.4428308,31.6711875 C19.4902154,32.0130625 19.2557538,32.3286875 18.9197538,32.3768125 L15.7123692,32.8343125 C15.6828308,32.8386875 15.6539077,32.8405625 15.6256,32.8405625" id="Fill-31" fill="#003366"></path>
            <path d="M16.1051692,36.308625 C15.8030154,36.308625 15.5396308,36.083 15.4965538,35.7705 C15.4491692,35.428625 15.6830154,35.113 16.0202462,35.064875 L17.3033231,34.88175 C17.6405538,34.829875 17.9507077,35.07175 17.9980923,35.413625 C18.0454769,35.7555 17.8110154,36.071125 17.4744,36.11925 L16.1913231,36.302375 C16.1624,36.30675 16.1334769,36.308625 16.1051692,36.308625" id="Fill-33" fill="#003366"></path>
            <path d="M20.9717538,32.077 C20.6696,32.077 20.4062154,31.851375 20.3631385,31.538875 C20.3157538,31.197 20.5496,30.881375 20.8862154,30.83325 L24.0942154,30.375125 C24.4308308,30.322625 24.7416,30.56575 24.7889846,30.907625 C24.8363692,31.2495 24.6019077,31.565125 24.2659077,31.61325 L21.0585231,32.07075 C21.0289846,32.075125 21.0000615,32.077 20.9717538,32.077" id="Fill-35" fill="#003366"></path>
            <path d="M26.3179077,31.3140625 C26.0157538,31.3140625 25.7523692,31.0884375 25.7092923,30.7759375 C25.6619077,30.4340625 25.8957538,30.1184375 26.2323692,30.0703125 L29.4403692,29.6121875 C29.7751385,29.5621875 30.0877538,29.8028125 30.1351385,30.1446875 C30.1825231,30.4865625 29.9480615,30.8021875 29.6120615,30.8503125 L26.4046769,31.3078125 C26.3751385,31.3121875 26.3462154,31.3140625 26.3179077,31.3140625" id="Fill-37" fill="#003366"></path>
            <path d="M31.6640615,30.551125 C31.3619077,30.551125 31.0985231,30.3255 31.0554462,30.013 C31.0080615,29.671125 31.2419077,29.3555 31.5785231,29.307375 L34.7865231,28.84925 C35.1237538,28.798 35.4339077,29.039875 35.4812923,29.38175 C35.5286769,29.723625 35.2942154,30.03925 34.9582154,30.087375 L31.7508308,30.544875 C31.7212923,30.54925 31.6923692,30.551125 31.6640615,30.551125" id="Fill-39" fill="#003366"></path>
        </g>
    </g>
</svg>