<?xml version="1.0" encoding="UTF-8"?>
<svg width="40px" height="40px" viewBox="0 0 40 40" version="1.1" xmlns="http://www.w3.org/2000/svg" xmlns:xlink="http://www.w3.org/1999/xlink">
    <!-- Generator: Sketch 48.2 (47327) - http://www.bohemiancoding.com/sketch -->
    <title>car alerts</title>
    <desc>Created with Sketch.</desc>
    <defs>
        <polygon id="path-1" points="0.123753846 0.0176875 3.68861538 0.0176875 3.68861538 1.2676875 0.123753846 1.2676875"></polygon>
        <polygon id="path-3" points="0.45788471 0.573500941 22.1501538 0.573500941 22.1501538 24.02 0.45788471 24.02"></polygon>
    </defs>
    <g id="Register-Screen" stroke="none" stroke-width="1" fill="none" fill-rule="evenodd" transform="translate(-694.000000, -514.000000)">
        <g id="car-alerts" transform="translate(694.000000, 514.000000)">
            <g id="Group-3" transform="translate(35.692308, 4.375000)">
                <mask id="mask-2" fill="white">
                    <use xlink:href="#path-1"></use>
                </mask>
                <g id="Clip-2"></g>
                <path d="M3.07329231,1.2676875 L0.739138462,1.2676875 C0.398830769,1.2676875 0.123753846,0.9883125 0.123753846,0.6426875 C0.123753846,0.2970625 0.398830769,0.0176875 0.739138462,0.0176875 L3.07329231,0.0176875 C3.4136,0.0176875 3.68867692,0.2970625 3.68867692,0.6426875 C3.68867692,0.9883125 3.4136,1.2676875 3.07329231,1.2676875" id="Fill-1" fill="#003366" mask="url(#mask-2)"></path>
            </g>
            <path d="M34.4404923,3.620625 C34.1001846,3.620625 33.8251077,3.34125 33.8251077,2.995625 L33.8251077,0.625 C33.8251077,0.279375 34.1001846,0 34.4404923,0 C34.7808,0 35.0558769,0.279375 35.0558769,0.625 L35.0558769,2.995625 C35.0558769,3.34125 34.7808,3.620625 34.4404923,3.620625" id="Fill-4" fill="#003366"></path>
            <path d="M36.2253538,3.8299375 C36.0678154,3.8299375 35.9102769,3.7686875 35.7902769,3.6468125 C35.5496615,3.4024375 35.5496615,3.0074375 35.7902769,2.7630625 L36.9902769,1.5443125 C37.2308923,1.2999375 37.6204308,1.2999375 37.8604308,1.5443125 C38.1010462,1.7880625 38.1010462,2.1836875 37.8604308,2.4280625 L36.6604308,3.6468125 C36.5404308,3.7686875 36.3828923,3.8299375 36.2253538,3.8299375" id="Fill-6" fill="#003366"></path>
            <path d="M6.32935385,28.3770625 C5.67396923,28.3770625 5.18350769,28.9708125 5.18289231,29.5020625 C5.18289231,29.7876875 5.31458462,30.1039375 5.53550769,30.3470625 C5.66658462,30.4920625 5.94412308,30.7345625 6.32873846,30.7345625 L6.33058462,30.7345625 C6.62289231,30.7345625 6.90658462,30.6039375 7.13181538,30.3658125 C7.3472,30.1364375 7.47581538,29.8339375 7.47581538,29.5558125 C7.47581538,29.0108125 6.97550769,28.3776875 6.32996923,28.3770625 L6.32935385,28.3770625 Z M6.33058462,31.9845625 L6.32873846,31.9845625 C5.69612308,31.9845625 5.09243077,31.7039375 4.63027692,31.1945625 C4.19889231,30.7189375 3.95150769,30.1020625 3.95212308,29.5008125 C3.95273846,28.2139375 5.04135385,27.1270625 6.32935385,27.1270625 L6.3312,27.1270625 C7.59704615,27.1276875 8.70658462,28.2620625 8.70658462,29.5551875 C8.7072,30.1570625 8.45673846,30.7670625 8.02043077,31.2301875 C7.56135385,31.7170625 6.96073846,31.9845625 6.33058462,31.9845625 Z" id="Fill-8" fill="#003366"></path>
            <path d="M5.16824615,36.8555 L5.16824615,38.124875 C5.16824615,38.469875 5.44393846,38.749875 5.78363077,38.749875 L6.87470769,38.749875 C7.2144,38.749875 7.49009231,38.469875 7.49009231,38.124875 L7.49009231,36.8555 L5.16824615,36.8555 Z M6.87470769,39.999875 L5.78363077,39.999875 C4.76578462,39.999875 3.93747692,39.15925 3.93747692,38.124875 L3.93747692,36.2305 C3.93747692,35.884875 4.21255385,35.6055 4.55286154,35.6055 L8.10547692,35.6055 C8.44578462,35.6055 8.72086154,35.884875 8.72086154,36.2305 L8.72086154,38.124875 C8.72086154,39.15925 7.89316923,39.999875 6.87470769,39.999875 Z" id="Fill-10" fill="#003366"></path>
            <path d="M27.5715077,22.4713125 L26.5327385,22.4713125 C26.2133538,22.4713125 24.4078154,23.5056875 24.4078154,23.5056875 L22.8508923,19.4575625 C22.4084308,18.2794375 21.2933538,17.7225625 20.0502769,17.7225625 L16.1007385,17.7225625 C16.2182769,18.1669375 16.3727385,18.6069375 16.5702769,19.0388125 L16.9167385,19.7925625 L18.9530462,19.7925625 C19.8902769,19.7925625 20.7296615,19.9088125 21.0656615,20.7969375 L22.4822769,24.0544375 L18.6601231,24.0544375 L18.6601231,24.0538125 C18.7173538,24.6931875 18.5930462,25.3438125 18.2878154,25.9238125 C17.8022769,26.8463125 17.7727385,27.9469375 18.2078154,28.8944375 L18.6225846,29.7981875 C18.6225846,29.7981875 24.0053538,27.5263125 24.0158154,27.5488125 C24.6090462,28.8406875 26.0293538,29.3213125 27.3272,29.4850625 C27.2976615,28.3444375 26.8195077,27.3963125 25.9622769,26.5194375 L25.0767385,25.8806875 L27.1013538,25.8806875 C28.0970462,25.8806875 28.9087385,24.7250625 28.9087385,23.7144375 L28.9087385,23.6825625 C28.9087385,22.9338125 28.3093538,22.4713125 27.5715077,22.4713125" id="Fill-12" fill="#E6E6E6"></path>
            <path d="M23.1953231,28.3770625 L23.1947077,28.3770625 C22.5491692,28.3776875 22.0488615,29.0108125 22.0482462,29.5558125 C22.0482462,30.1008125 22.5485538,30.7345625 23.1940923,30.7345625 L23.1959385,30.7345625 C23.8304,30.7345625 24.3417846,30.0595625 24.3417846,29.5014375 C24.3411692,28.9708125 23.8507077,28.3770625 23.1953231,28.3770625 M23.1959385,31.9845625 L23.1940923,31.9845625 C21.9276308,31.9845625 20.8174769,30.8495625 20.8174769,29.5551875 C20.8180923,28.2620625 21.9282462,27.1276875 23.1934769,27.1270625 L23.1953231,27.1270625 C24.4833231,27.1270625 25.5719385,28.2139375 25.5725538,29.5008125 C25.5725538,30.8245625 24.4624,31.9845625 23.1959385,31.9845625" id="Fill-14" fill="#003366"></path>
            <path d="M21.0654769,20.797125 C20.7294769,19.909 19.8900923,19.79275 18.9528615,19.79275 L16.9165538,19.79275 L18.3676308,22.953375 C18.5288615,23.30525 18.6260923,23.677125 18.6599385,24.054625 L22.4827077,24.054625 L21.0654769,20.797125 Z" id="Fill-16" fill="#E0E0E0"></path>
            <path d="M22.0342769,36.8555 L22.0342769,38.124875 C22.0342769,38.469875 22.3099692,38.749875 22.6496615,38.749875 L23.7401231,38.749875 C24.0798154,38.749875 24.3555077,38.469875 24.3555077,38.124875 L24.3555077,36.8555 L22.0342769,36.8555 Z M23.7401231,39.999875 L22.6496615,39.999875 C21.6318154,39.999875 20.8035077,39.15925 20.8035077,38.124875 L20.8035077,36.2305 C20.8035077,35.884875 21.0785846,35.6055 21.4188923,35.6055 L24.9708923,35.6055 C25.3112,35.6055 25.5862769,35.884875 25.5862769,36.2305 L25.5862769,38.124875 C25.5862769,39.15925 24.7585846,39.999875 23.7401231,39.999875 Z" id="Fill-18" fill="#003366"></path>
            <path d="M7.98676923,23.4295625 L21.5381538,23.4295625 L20.5024615,21.0495625 C20.3430769,20.6301875 20.0538462,20.4176875 18.9529231,20.4176875 L10.5707692,20.4176875 C9.46984615,20.4176875 9.18123077,20.6295625 9.03353846,21.0208125 L7.98676923,23.4295625 Z M22.4827692,24.6795625 L7.04215385,24.6795625 C6.83415385,24.6795625 6.64030769,24.5726875 6.52646154,24.3958125 C6.41261538,24.2189375 6.39476923,23.9951875 6.47907692,23.8020625 L7.89630769,20.5445625 C8.41507692,19.1676875 9.87169231,19.1676875 10.5707692,19.1676875 L18.9529231,19.1676875 C19.6526154,19.1676875 21.108,19.1676875 21.6403077,20.5733125 L23.0458462,23.8020625 C23.1295385,23.9951875 23.1116923,24.2189375 22.9984615,24.3958125 C22.8846154,24.5726875 22.6907692,24.6795625 22.4827692,24.6795625 Z" id="Fill-20" fill="#003366"></path>
            <path d="M14.7668308,33.806125 C13.2345231,33.79425 11.6702154,33.373 10.1083692,32.553 C9.8056,32.39425 9.68806154,32.017375 9.84375385,31.7105 C10.0000615,31.40425 10.3711385,31.2855 10.6732923,31.442375 C12.0616,32.171125 13.4394462,32.5455 14.7668308,32.556125 C16.0856,32.5455 17.4628308,32.171125 18.8517538,31.442375 C19.1526769,31.284875 19.5243692,31.40425 19.6806769,31.7105 C19.8363692,32.017375 19.7188308,32.39425 19.4166769,32.553 C17.8548308,33.373 16.2899077,33.79425 14.7668308,33.806125" id="Fill-22" fill="#003366"></path>
            <path d="M3.96276923,26.9970625 C3.03107692,27.9651875 2.68461538,28.9320625 2.84030769,30.1251875 L3.57876923,35.5933125 L25.9289231,35.6051875 L26.684,30.1220625 C26.8396923,28.9320625 26.4932308,27.9651875 25.5621538,26.9970625 L24.7203077,26.3901875 C24.5024615,26.2326875 24.4095385,25.9495625 24.4901538,25.6908125 C24.572,25.4314375 24.8089231,25.2558125 25.0772308,25.2558125 L27.1018462,25.2558125 C27.732,25.2558125 28.2932308,24.3939375 28.2932308,23.7145625 C28.2932308,23.2501875 27.9043077,23.0964375 27.5713846,23.0964375 L26.5787692,23.0964375 C26.3252308,23.1720625 25.4249231,23.6408125 24.7104615,24.0501875 C24.5553846,24.1389375 24.3695385,24.1545625 24.2015385,24.0945625 C24.0335385,24.0339375 23.8993846,23.9020625 23.8347692,23.7333125 L22.2778462,19.6851875 C21.8243077,18.4776875 20.5689231,18.3476875 20.0507692,18.3476875 L9.47415385,18.3476875 C8.95538462,18.3476875 7.7,18.4776875 7.24892308,19.6801875 L5.68953846,23.7333125 C5.62430769,23.9020625 5.49015385,24.0339375 5.32276923,24.0945625 C5.15476923,24.1539375 4.96892308,24.1389375 4.81384615,24.0501875 C4.1,23.6408125 3.19969231,23.1714375 2.94615385,23.0964375 L1.95292308,23.0964375 C1.62,23.0964375 1.23107692,23.2501875 1.23107692,23.6826875 C1.23107692,24.3939375 1.79230769,25.2558125 2.42307692,25.2558125 L4.44769231,25.2558125 C4.716,25.2558125 4.95230769,25.4314375 5.03415385,25.6908125 C5.11538462,25.9495625 5.02246154,26.2326875 4.804,26.3901875 L3.96276923,26.9970625 Z M25.9867692,36.8551875 L3.53815385,36.8551875 C2.96461538,36.8551875 2.44646154,36.3776875 2.36030769,35.7676875 L1.62,30.2914375 C1.43723077,28.8826875 1.804,27.6395625 2.74123077,26.5058125 L2.42307692,26.5058125 C1.036,26.5058125 0.000307692308,25.0320625 0.000307692308,23.7145625 C0.000307692308,22.6183125 0.821846154,21.8464375 1.95292308,21.8464375 L2.99230769,21.8464375 C3.11907692,21.8464375 3.39661538,21.8464375 4.79846154,22.6133125 L6.10061538,19.2295625 C6.60092308,17.8964375 7.86307692,17.0976875 9.47415385,17.0976875 L20.0507692,17.0976875 C21.6618462,17.0976875 22.924,17.8964375 23.4261538,19.2345625 L24.7252308,22.6133125 C26.1283077,21.8464375 26.4058462,21.8464375 26.5326154,21.8464375 L27.5713846,21.8464375 C28.7030769,21.8464375 29.524,22.6183125 29.524,23.6826875 C29.524,25.0320625 28.4883077,26.5058125 27.1018462,26.5058125 L26.7836923,26.5058125 C27.7209231,27.6395625 28.0876923,28.8826875 27.9036923,30.2895625 L27.1658462,35.7626875 C27.0784615,36.3776875 26.5603077,36.8551875 25.9867692,36.8551875 Z" id="Fill-24" fill="#003366"></path>
            <path d="M32.9014154,20.296625 C32.0398769,18.419125 29.8423385,17.60725 27.9943385,18.482875 C26.1463385,19.357875 25.3469538,21.589125 26.2084923,23.466 C27.0700308,25.342875 29.2675692,26.155375 31.1155692,25.280375 C32.9641846,24.40475 33.7629538,22.1735 32.9014154,20.296625" id="Fill-26" fill="#A0D5EE"></path>
            <path d="M32.9014154,20.296625 C32.0398769,18.419125 29.8423385,17.60725 27.9943385,18.482875 C27.1611077,18.87725 26.5432615,19.54975 26.1924923,20.339125 C28.0312615,19.49725 30.1998769,20.309125 31.0552615,22.171625 C31.5284923,23.201 31.4983385,24.33725 31.0712615,25.297875 C31.0860308,25.291 31.1008,25.286625 31.1155692,25.280375 C32.9641846,24.40475 33.7629538,22.1735 32.9014154,20.296625" id="Fill-28" fill="#D0EAF7"></path>
            <path d="M29.5534769,18.754875 C29.1097846,18.754875 28.6685538,18.853 28.2550154,19.04925 C27.5097846,19.40175 26.9448615,20.028 26.6636308,20.812375 C26.3830154,21.597375 26.4187077,22.4455 26.7664,23.20175 C27.1134769,23.958625 27.7300923,24.532375 28.5024,24.818 C29.2747077,25.103 30.1097846,25.06675 30.8550154,24.713625 C31.6002462,24.361125 32.1651692,23.734875 32.4464,22.9505 C32.7276308,22.166125 32.6913231,21.317375 32.3436308,20.561125 C31.9965538,19.80425 31.3799385,19.2305 30.6076308,18.944875 C30.2636308,18.818 29.9079385,18.754875 29.5534769,18.754875 M29.5620923,26.256125 C27.9380923,26.256125 26.3811692,25.3205 25.6507077,23.7305 C25.1645538,22.67175 25.1134769,21.483 25.5073231,20.384875 C25.9005538,19.287375 26.6919385,18.409875 27.7344,17.916125 C28.7787077,17.422375 29.9479385,17.3705 31.0279385,17.769875 C32.1091692,18.16925 32.9731692,18.973625 33.4593231,20.032375 C33.9454769,21.091125 33.9965538,22.279875 33.6033231,23.377375 C33.2094769,24.4755 32.4180923,25.353 31.3756308,25.84675 C30.7885538,26.124875 30.1700923,26.256125 29.5620923,26.256125" id="Fill-30" fill="#003366"></path>
            <path d="M38.7656,17.442 L38.3754462,16.592625 C37.9662154,15.701375 37.1674462,15.057625 36.2197538,14.855125 C35.2720615,14.652625 34.4732923,14.008875 34.0640615,13.117625 L32.3736,9.435125 C30.9508308,6.33575 27.7077538,4.6945 24.5397538,5.1995 C24.5114462,5.1045 24.4849846,5.008875 24.4425231,4.916375 C23.9576,3.86075 22.7219077,3.403875 21.6819077,3.896375 C20.6425231,4.38825 20.1926769,5.643875 20.6776,6.6995 C20.7200615,6.792 20.7754462,6.873875 20.8289846,6.957625 C18.4117538,9.097 17.5649846,12.67575 18.9877538,15.775125 L20.6782154,19.457 C21.0874462,20.34825 21.0603692,21.383875 20.6031385,22.25075 C20.1465231,23.11825 20.1188308,24.15325 20.5280615,25.045125 L20.9182154,25.8945 L38.7656,17.442 Z" id="Fill-32" fill="#A0D5EE"></path>
            <path d="M22.5961846,6.791375 C22.6386462,6.883875 22.6651077,6.9795 22.6934154,7.0745 C25.8620308,6.570125 29.1044923,8.21075 30.5278769,11.310125 L32.2183385,14.992625 C32.6275692,15.883875 33.4263385,16.527625 34.3740308,16.730125 C35.3217231,16.932625 36.1204923,17.576375 36.5297231,18.467625 L36.5420308,18.49575 L38.7654154,17.442 L38.3758769,16.592625 C37.9666462,15.701375 37.1678769,15.057625 36.2201846,14.855125 C35.2724923,14.652625 34.4737231,14.008875 34.0644923,13.117625 L32.3740308,9.435125 C30.9506462,6.33575 27.7081846,4.695125 24.5395692,5.1995 C24.5112615,5.1045 24.4848,5.008875 24.4423385,4.916375 C23.9574154,3.86075 22.7217231,3.403875 21.6823385,3.896375 C20.9955692,4.221375 20.5746462,4.880125 20.5014154,5.59325 C21.3568,5.503875 22.2121846,5.955125 22.5961846,6.791375" id="Fill-34" fill="#D0EAF7"></path>
            <g id="Group-38" transform="translate(17.230769, 2.500000)">
                <mask id="mask-4" fill="white">
                    <use xlink:href="#path-3"></use>
                </mask>
                <g id="Clip-37"></g>
                <path d="M5.32873846,1.823125 C5.11766154,1.823125 4.90781538,1.869375 4.71150769,1.963125 C4.35766154,2.13 4.08873846,2.428125 3.95581538,2.8 C3.82227692,3.1725 3.83950769,3.57625 4.00504615,3.935 C4.03027692,3.990625 4.06166154,4.03625 4.09243077,4.083125 C4.26104615,4.344375 4.23396923,4.72375 4.00258462,4.92875 C1.74227692,6.929375 1.04873846,10.2525 2.3152,13.010625 L4.00566154,16.6925 C4.49427692,17.756875 4.46043077,19.010625 3.9152,20.045625 C3.55150769,20.735625 3.52935385,21.57125 3.85489231,22.280625 L3.98473846,22.564375 L20.7170462,14.64 L20.5872,14.356875 C20.2616615,13.6475 19.6167385,13.1275 18.8628923,12.966875 C17.7312,12.725 16.7644308,11.945625 16.2758154,10.881875 L14.5853538,7.2 C13.3188923,4.441875 10.3638154,2.845 7.40443077,3.3175 C7.10043077,3.3625 6.80812308,3.17875 6.72012308,2.879375 C6.69489231,2.794375 6.67950769,2.736875 6.65366154,2.680625 C6.48873846,2.32125 6.19581538,2.048125 5.82904615,1.913125 C5.66596923,1.853125 5.49673846,1.823125 5.32873846,1.823125 M3.68750769,24.02 C3.61673846,24.02 3.54535385,24.006875 3.47704615,23.981875 C3.32381538,23.925 3.19889231,23.809375 3.12996923,23.659375 L2.73981538,22.809375 C2.2512,21.745 2.28504615,20.49125 2.82966154,19.45625 C3.19335385,18.76625 3.21550769,17.930625 2.88996923,17.22125 L1.19950769,13.539375 C-0.226953846,10.43125 0.4512,6.716875 2.83089231,4.328125 C2.58227692,3.703125 2.56996923,3.013125 2.79950769,2.373125 C3.04504615,1.68625 3.53981538,1.138125 4.19150769,0.83 C5.49181538,0.213125 7.03581538,0.7475 7.70412308,2.019375 C11.0308923,1.70375 14.2739692,3.56375 15.7004308,6.67125 L17.3915077,10.353125 C17.7170462,11.0625 18.3619692,11.5825 19.1158154,11.74375 C20.2468923,11.985 21.2136615,12.764375 21.7022769,13.828125 L22.0924308,14.6775 C22.2364308,14.990625 22.1028923,15.3625 21.7952,15.508125 L3.94781538,23.96125 C3.86535385,24 3.77673846,24.02 3.68750769,24.02" id="Fill-36" fill="#003366" mask="url(#mask-4)"></path>
            </g>
        </g>
    </g>
</svg>