<?xml version="1.0" encoding="UTF-8"?>
<svg width="40px" height="40px" viewBox="0 0 40 40" version="1.1" xmlns="http://www.w3.org/2000/svg" xmlns:xlink="http://www.w3.org/1999/xlink">
    <!-- Generator: Sketch 48.2 (47327) - http://www.bohemiancoding.com/sketch -->
    <title>saved searches</title>
    <desc>Created with Sketch.</desc>
    <defs>
        <polygon id="path-1" points="0.420932547 0.27525 36.015873 0.27525 36.015873 17.5 0.420932547 17.5"></polygon>
    </defs>
    <g id="Register-Screen" stroke="none" stroke-width="1" fill="none" fill-rule="evenodd" transform="translate(-694.000000, -442.000000)">
        <g id="saved-searches" transform="translate(694.000000, 442.000000)">
            <path d="M1.90495238,17.7910625 L29.2662222,17.7910625 C29.8789206,17.7910625 30.404,18.2216875 30.5151111,18.8148125 L34.0852698,37.8935625 C34.2287619,38.6623125 33.6293968,39.3698125 32.836381,39.3698125 L5.47447619,39.3698125 C4.86177778,39.3698125 4.33669841,38.9398125 4.2255873,38.3466875 L0.656063492,19.2673125 C0.512571429,18.4998125 1.11130159,17.7910625 1.90495238,17.7910625" id="Fill-1" fill="#E6E6E6"></path>
            <path d="M32.1269206,27.4315625 C31.4418413,27.5896875 30.6907302,27.4190625 30.1554921,26.9078125 L22.1504127,19.1103125 C18.3300952,21.4990625 13.1656508,21.0434375 9.67549206,17.7909375 L6.4272381,17.7909375 C6.892,18.6153125 7.47612698,19.3940625 8.18977778,20.0959375 C11.6799365,23.5315625 16.9815238,24.0478125 20.8805714,21.6103125 L28.8856508,29.4078125 C29.7072381,30.1928125 31.0386667,30.1903125 31.8583492,29.4028125 C32.092,29.1790625 32.2539048,28.9146875 32.3516825,28.6340625 L32.1269206,27.4315625 Z" id="Fill-3" fill="#BDBDBD"></path>
            <path d="M1.90495238,18.4160625 C1.64590476,18.4160625 1.48844444,18.5573125 1.41669841,18.6410625 C1.3455873,18.7254375 1.23320635,18.9035625 1.2808254,19.1541875 L4.85034921,38.2335625 C4.90622222,38.5298125 5.16844444,38.7448125 5.47447619,38.7448125 L32.836381,38.7448125 C33.0947937,38.7448125 33.2528889,38.6041875 33.324,38.5198125 C33.395746,38.4354375 33.5074921,38.2573125 33.4605079,38.0073125 L29.8903492,18.9279375 C29.8344762,18.6316875 29.572254,18.4160625 29.2662222,18.4160625 L1.90495238,18.4160625 Z M32.836381,39.9948125 L5.47447619,39.9948125 C4.55574603,39.9948125 3.76780952,39.3491875 3.60146032,38.4591875 L0.0319365079,19.3804375 C-0.0709206349,18.8316875 0.0782857143,18.2710625 0.440825397,17.8416875 C0.804,17.4123125 1.33733333,17.1660625 1.90495238,17.1660625 L29.2662222,17.1660625 C30.1849524,17.1660625 30.972254,17.8116875 31.1392381,18.7010625 L34.7093968,37.7798125 C34.812254,38.3291875 34.6630476,38.8904375 34.299873,39.3191875 C33.9366984,39.7491875 33.4033651,39.9948125 32.836381,39.9948125 Z" id="Fill-5" fill="#003366"></path>
            <path d="M25.7659683,16.8139375 L33.1234286,24.0564375 C33.9462857,24.8414375 33.9481905,26.1158125 33.1285079,26.9033125 C32.3088254,27.6901875 30.9773968,27.6926875 30.1551746,26.9076875 L22.8332698,19.7008125 L25.7659683,16.8139375 Z" id="Fill-7" fill="#A0D5EE"></path>
            <path d="M21.7387937,15.736 C18.9476825,18.4835 14.359746,18.420375 11.4905397,15.596 C8.62196825,12.771625 8.55784127,8.25475 11.3483175,5.5085 C14.1387937,2.761 18.7273651,2.824125 21.5959365,5.647875 C24.4657778,8.472875 24.5299048,12.989125 21.7387937,15.736 M23.6283175,3.6485 C19.6054603,-0.3115 13.1724444,-0.399 9.26006349,3.45225 C5.34768254,7.3035 5.43657143,13.636 9.45942857,17.596 C13.4822857,21.556 19.9146667,21.6435 23.8276825,17.79225 C27.7400635,13.941 27.6511746,7.6085 23.6283175,3.6485" id="Fill-9" fill="#A0D5EE"></path>
            <path d="M23.8276825,17.7923125 L23.8340317,17.7923125 L23.8276825,17.7923125 Z M16.2600635,1.2491875 C13.8689524,1.2491875 11.5026032,2.1285625 9.70895238,3.8941875 C6.04990476,7.4954375 6.14006349,13.4441875 9.90831746,17.1541875 C13.6772063,20.8635625 19.720381,20.9516875 23.3787937,17.3504375 C27.0378413,13.7485625 26.9476825,7.8004375 23.1794286,4.0904375 C21.2581587,2.1998125 18.7457778,1.2491875 16.2600635,1.2491875 Z M16.8270476,21.2435625 C14.016254,21.2435625 11.1787937,20.1723125 9.01053968,18.0379375 C4.7464127,13.8404375 4.65752381,7.0991875 8.8111746,3.0104375 C12.9654603,-1.0789375 19.8130794,-0.9908125 24.0772063,3.2066875 C28.3406984,7.4041875 28.4302222,14.1454375 24.2765714,18.2341875 C22.2353016,20.2435625 19.5432381,21.2435625 16.8270476,21.2435625 Z" id="Fill-11" fill="#003366"></path>
            <path d="M33.1283175,26.903 C33.948,26.1155 33.9460952,24.841125 33.1232381,24.056125 L25.7657778,16.813625 L24.3187937,18.238625 L33.123873,26.90675 C33.1251429,26.9055 33.1270476,26.90425 33.1283175,26.903" id="Fill-13" fill="#D0EAF7"></path>
            <path d="M21.4833651,21.654625 C21.3208254,21.654625 21.1582857,21.593375 21.0344762,21.4715 C20.7862222,21.227125 20.7862222,20.832125 21.0344762,20.58775 L26.6674921,15.04275 C26.915746,14.798375 27.3170159,14.798375 27.5652698,15.04275 C27.8135238,15.287125 27.8135238,15.682125 27.5652698,15.9265 L21.932254,21.4715 C21.8084444,21.593375 21.6459048,21.654625 21.4833651,21.654625" id="Fill-15" fill="#003366"></path>
            <path d="M31.6389841,28.117625 C30.9418413,28.117625 30.2446984,27.863875 29.7132698,27.356375 L22.384381,20.142625 C22.136127,19.898875 22.136127,19.50325 22.384381,19.258875 C22.632,19.015125 23.0339048,19.015125 23.2821587,19.258875 L30.6040635,26.46575 C31.1735873,27.0095 32.1094603,27.008875 32.6846984,26.45575 C32.9577143,26.193875 33.1075556,25.847 33.1069206,25.4795 C33.1062857,25.112 32.9551746,24.766375 32.6815238,24.505125 L25.3170794,17.25575 C25.0688254,17.011375 25.0688254,16.616375 25.3170794,16.372 C25.5653333,16.127625 25.9666032,16.127625 26.2148571,16.372 L33.5723175,23.6145 C34.0872381,24.10575 34.3754921,24.770125 34.3767619,25.477 C34.3773968,26.185125 34.0916825,26.85075 33.5716825,27.350125 C33.039619,27.862 32.3393016,28.117625 31.6389841,28.117625" id="Fill-17" fill="#003366"></path>
            <path d="M16.3413333,4.116125 C14.6829206,4.116125 13.0416508,4.726125 11.7972063,5.9505 C9.25879365,8.44925 9.32292063,12.578 11.9394286,15.15425 C14.5559365,17.729875 18.7508571,17.793 21.2899048,15.29425 C22.5178413,14.086125 23.1800635,12.464875 23.1546667,10.729875 C23.1305397,8.988625 22.4175238,7.3405 21.1470476,6.089875 C19.8130794,4.77675 18.0676825,4.116125 16.3413333,4.116125 M16.7457778,18.377375 C14.6937143,18.377375 12.6245079,17.5955 11.0416508,16.038 C7.92990476,12.97425 7.86577778,8.052375 10.8994286,5.06675 C13.9330794,2.079875 18.9330794,2.143 22.0448254,5.206125 C23.5502222,6.688 24.3959365,8.643625 24.4245079,10.713 C24.4543492,12.788 23.6594286,14.72925 22.1876825,16.178 C20.696254,17.6455 18.7292698,18.377375 16.7457778,18.377375" id="Fill-19" fill="#003366"></path>
            <path d="M37.9205714,26.299375 L20.9485079,26.299375 C20.5129524,26.299375 20.1085079,26.08 19.8754921,25.718125 L18.7548571,23.97625 C18.5218413,23.615 18.1173968,23.395625 17.6824762,23.395625 L10.7389841,23.395625 C10.1821587,23.395625 9.68946032,23.75375 9.52501587,24.278125 L4.92311111,37.7525 C4.67168254,38.55625 5.28247619,39.37 6.13644444,39.37 L33.4767619,39.37 C34.0081905,39.37 34.483746,39.044375 34.667873,38.55375 L39.1116825,27.983125 C39.4183492,27.166875 38.8056508,26.299375 37.9205714,26.299375" id="Fill-21" fill="#FFFFFF"></path>
            <g id="Group-25" transform="translate(3.809524, 22.495062)">
                <mask id="mask-2" fill="white">
                    <use xlink:href="#path-1"></use>
                </mask>
                <g id="Clip-24"></g>
                <path d="M6.92977778,1.52525 C6.64977778,1.52525 6.40533333,1.70275 6.32215873,1.967125 L1.71580952,15.4565 C1.66057143,15.63275 1.69549206,15.83525 1.81612698,15.995875 C1.93739683,16.157125 2.12342857,16.25025 2.3272381,16.25025 L29.6675556,16.25025 C29.9323175,16.25025 30.1710476,16.085875 30.2631111,15.842125 L34.7158095,5.249 C34.7799365,5.077125 34.7526349,4.86775 34.6326349,4.697125 C34.512,4.527125 34.3221587,4.429 34.1113651,4.429 L17.1386667,4.429 C16.4827937,4.429 15.8815238,4.103375 15.5297778,3.55775 L14.4091429,1.815875 C14.2923175,1.634 14.0910476,1.52525 13.8732698,1.52525 L6.92977778,1.52525 Z M29.6675556,17.50025 L2.3272381,17.50025 C1.71580952,17.50025 1.15707937,17.222125 0.794539683,16.739 C0.432,16.254625 0.327238095,15.648375 0.506920635,15.073375 L5.11390476,1.584 C5.35707937,0.807125 6.08914286,0.27525 6.92977778,0.27525 L13.8732698,0.27525 C14.5285079,0.27525 15.1297778,0.600875 15.4815238,1.1465 L16.6021587,2.889 C16.719619,3.070875 16.919619,3.179 17.1386667,3.179 L34.1113651,3.179 C34.7342222,3.179 35.3189841,3.479625 35.6745397,3.98275 C36.0307302,4.485875 36.1139048,5.13025 35.8973968,5.704625 L31.4446984,16.298375 C31.1786667,17.00775 30.4612063,17.50025 29.6675556,17.50025 Z" id="Fill-23" fill="#003366" mask="url(#mask-2)"></path>
            </g>
        </g>
    </g>
</svg>