<?xml version="1.0" encoding="UTF-8"?>
<svg width="40px" height="40px" viewBox="0 0 40 40" version="1.1" xmlns="http://www.w3.org/2000/svg" xmlns:xlink="http://www.w3.org/1999/xlink">
    <!-- Generator: Sketch 48.2 (47327) - http://www.bohemiancoding.com/sketch -->
    <title>saved cars</title>
    <desc>Created with Sketch.</desc>
    <defs></defs>
    <g id="Register-Screen" stroke="none" stroke-width="1" fill="none" fill-rule="evenodd" transform="translate(-694.000000, -370.000000)">
        <g id="saved-cars" transform="translate(694.000000, 370.000000)">
            <path d="M11.90675,17.7118125 C11.95925,17.7986875 12.009875,17.8880625 12.06425,17.9718125 C12.489875,18.6330625 13.208625,19.4849375 14.219875,20.5286875 C15.231125,21.5724375 16.09175,22.4155625 16.80175,23.0593125 C17.511125,23.7030625 18.61175,24.7030625 20.10175,26.0593125 L21.75175,27.4680625 L23.402375,26.0068125 C24.928,24.6855625 26.03675,23.7030625 26.72925,23.0593125 C26.92425,22.8780625 27.1355,22.6761875 27.356125,22.4630625 L26.9605,22.4630625 C26.636125,22.4630625 24.802375,23.4980625 24.802375,23.4980625 L23.219875,19.4468125 C22.7705,18.2693125 21.636125,17.7118125 20.37425,17.7118125 L11.90675,17.7118125 Z" id="Fill-1" fill="#E6E6E6"></path>
            <path d="M6.4306875,28.371 C5.7644375,28.371 5.2663125,28.965375 5.2656875,29.49725 C5.2656875,30.055375 5.7856875,30.731 6.4306875,30.731 C7.0875625,30.731 7.5969375,30.096625 7.5969375,29.550375 C7.5963125,29.005375 7.0875625,28.371625 6.4313125,28.371 L6.4306875,28.371 Z M6.4319375,31.981 L6.4306875,31.981 C5.1438125,31.981 4.0156875,30.820375 4.0156875,29.496625 C4.0163125,28.2085 5.1225625,27.121 6.4306875,27.121 L6.4325625,27.121 C7.7181875,27.121625 8.8463125,28.256625 8.8469375,29.54975 C8.8469375,30.845375 7.7188125,31.981 6.4319375,31.981 Z" id="Fill-3" fill="#003366"></path>
            <path d="M5.2514375,36.853625 L5.2514375,38.124875 C5.2514375,38.469875 5.5314375,38.749875 5.8764375,38.749875 L6.9858125,38.749875 C7.3308125,38.749875 7.6108125,38.469875 7.6108125,38.124875 L7.6108125,36.853625 L5.2514375,36.853625 Z M6.9858125,39.999875 L5.8764375,39.999875 C4.8426875,39.999875 4.0014375,39.158625 4.0014375,38.124875 L4.0014375,36.228625 C4.0014375,35.883 4.2808125,35.603625 4.6264375,35.603625 L8.2358125,35.603625 C8.5814375,35.603625 8.8608125,35.883 8.8608125,36.228625 L8.8608125,38.124875 C8.8608125,39.158625 8.0201875,39.999875 6.9858125,39.999875 Z" id="Fill-5" fill="#003366"></path>
            <path d="M23.5693125,28.371 L23.5686875,28.371 C22.9124375,28.371625 22.4043125,29.005375 22.4036875,29.551 C22.4036875,29.829125 22.5343125,30.13225 22.7536875,30.361625 C22.9824375,30.59975 23.2711875,30.731 23.5680625,30.731 L23.5699375,30.731 C23.9605625,30.731 24.2424375,30.4885 24.3761875,30.342875 C24.6005625,30.09975 24.7343125,29.7835 24.7343125,29.49725 C24.7343125,29.221625 24.6099375,28.93975 24.3924375,28.72225 C24.1661875,28.496 23.8736875,28.371 23.5693125,28.371 M23.5699375,31.981 L23.5680625,31.981 C22.9274375,31.981 22.3174375,31.7135 21.8511875,31.226 C21.4074375,30.762875 21.1530625,30.15225 21.1536875,29.54975 C21.1543125,28.256625 22.2824375,27.121625 23.5674375,27.121 L23.5693125,27.121 C24.2074375,27.121 24.8136875,27.376 25.2768125,27.8385 C25.7261875,28.2885 25.9843125,28.892875 25.9843125,29.496625 C25.9849375,30.09725 25.7336875,30.71475 25.2955625,31.190375 C24.8255625,31.700375 24.2124375,31.981 23.5699375,31.981" id="Fill-7" fill="#003366"></path>
            <path d="M22.3895,36.853625 L22.3895,38.124875 C22.3895,38.469875 22.6695,38.749875 23.0145,38.749875 L24.123875,38.749875 C24.468875,38.749875 24.748875,38.469875 24.748875,38.124875 L24.748875,36.853625 L22.3895,36.853625 Z M24.123875,39.999875 L23.0145,39.999875 C21.98075,39.999875 21.1395,39.158625 21.1395,38.124875 L21.1395,36.228625 C21.1395,35.883 21.418875,35.603625 21.7645,35.603625 L25.373875,35.603625 C25.7195,35.603625 25.998875,35.883 25.998875,36.228625 L25.998875,38.124875 C25.998875,39.158625 25.15825,39.999875 24.123875,39.999875 Z" id="Fill-9" fill="#003366"></path>
            <path d="M8.11525,23.421625 L21.88525,23.421625 L20.833375,21.040375 C20.6715,20.620375 20.37775,20.407875 19.259,20.407875 L10.7415,20.407875 C9.62275,20.407875 9.329,20.620375 9.179,21.011625 L8.11525,23.421625 Z M22.844625,24.671625 L7.155875,24.671625 C6.944625,24.671625 6.74775,24.56475 6.632125,24.387875 C6.5165,24.211 6.498375,23.98725 6.584,23.794125 L8.024,20.535375 C8.550875,19.157875 10.03025,19.157875 10.7415,19.157875 L19.259,19.157875 C19.97025,19.157875 21.449625,19.157875 21.988375,20.56475 L23.4165,23.794125 C23.502125,23.98725 23.484,24.211 23.368375,24.387875 C23.253375,24.56475 23.055875,24.671625 22.844625,24.671625 Z" id="Fill-11" fill="#003366"></path>
            <path d="M15.004875,33.803125 C13.44925,33.79125 11.859875,33.37 10.271125,32.549375 C9.964875,32.390625 9.84425,32.014375 10.002375,31.706875 C10.161125,31.400625 10.538,31.28125 10.844875,31.43875 C12.257375,32.168125 13.65675,32.5425 15.004875,32.553125 C16.343625,32.5425 17.743625,32.168125 19.156125,31.43875 C19.462375,31.280625 19.83925,31.4 19.998,31.706875 C20.156125,32.014375 20.036125,32.390625 19.729875,32.549375 C18.141125,33.37 16.551125,33.79125 15.004875,33.803125" id="Fill-13" fill="#003366"></path>
            <path d="M4.025875,26.990375 C3.079,27.95975 2.72775,28.92725 2.885875,30.11975 L3.635875,35.591625 L26.348375,35.6035 L27.114625,30.11725 C27.27275,28.92725 26.9215,27.95975 25.974625,26.990375 L25.119625,26.3835 C24.89775,26.226 24.80275,25.9435 24.88525,25.684125 C24.968375,25.42475 25.209,25.249125 25.480875,25.249125 L27.538375,25.249125 C28.179625,25.249125 28.75025,24.386625 28.75025,23.706625 C28.75025,23.241625 28.354625,23.087875 28.0165,23.087875 L27.00775,23.087875 C26.749625,23.1635 25.83525,23.632875 25.109,24.04225 C24.9515,24.131 24.763375,24.146 24.592125,24.086625 C24.422125,24.026 24.285875,23.894125 24.22025,23.725375 L22.637125,19.67475 C22.177125,18.466625 20.9015,18.336625 20.374,18.336625 L9.6265,18.336625 C9.099,18.336625 7.823375,18.466625 7.36525,19.66975 L5.780875,23.725375 C5.714625,23.894125 5.578375,24.026 5.408375,24.086625 C5.237125,24.146 5.049,24.130375 4.8915,24.04225 C4.165875,23.632875 3.250875,23.1635 2.993375,23.087875 L1.984,23.087875 C1.64525,23.087875 1.25025,23.241625 1.25025,23.67475 C1.25025,24.386625 1.820875,25.249125 2.462125,25.249125 L4.519,25.249125 C4.7915,25.249125 5.0315,25.42475 5.114625,25.684125 C5.197125,25.9435 5.10275,26.226 4.880875,26.3835 L4.025875,26.990375 Z M26.405875,36.8535 L3.59525,36.8535 C3.012125,36.8535 2.485875,36.376 2.398375,35.766 L1.6465,30.286625 C1.46025,28.877875 1.83275,27.6335 2.78525,26.499125 L2.462125,26.499125 C1.05275,26.499125 0.00025,25.02475 0.00025,23.706625 C0.00025,22.610375 0.834625,21.837875 1.984,21.837875 L3.04025,21.837875 C3.169,21.837875 3.450875,21.837875 4.875875,22.605375 L6.199,19.219125 C6.707125,17.886 7.989625,17.086625 9.6265,17.086625 L20.374,17.086625 C22.010875,17.086625 23.293375,17.886 23.804,19.224125 L25.124625,22.605375 C26.549625,21.837875 26.8315,21.837875 26.96025,21.837875 L28.0165,21.837875 C29.165875,21.837875 30.00025,22.610375 30.00025,23.67475 C30.00025,25.02475 28.947125,26.499125 27.538375,26.499125 L27.215875,26.499125 C28.16775,27.6335 28.540875,28.87725 28.354,30.28475 L27.604,35.761 C27.514625,36.376 26.988375,36.8535 26.405875,36.8535 Z" id="Fill-15" fill="#003366"></path>
            <path d="M28.9795,4.3926875 C30.753875,4.3926875 32.2445,4.9839375 33.45075,6.1670625 C34.657625,7.3489375 35.26075,8.7926875 35.26075,10.4976875 C35.26075,11.3326875 35.08325,12.1758125 34.72825,13.0276875 C34.373875,13.8808125 33.98325,14.6370625 33.557,15.2976875 C33.132,15.9589375 32.412625,16.8108125 31.401375,17.8545625 C30.390125,18.8983125 29.538875,19.7420625 28.846375,20.3851875 C28.1545,21.0289375 27.045125,22.0114375 25.5195,23.3333125 L23.868875,24.7945625 L22.2195,23.3858125 C20.728875,22.0289375 19.62825,21.0289375 18.918875,20.3851875 C18.2095,19.7420625 17.348875,18.8983125 16.337,17.8545625 C15.32575,16.8108125 14.607,15.9589375 14.181375,15.2976875 C13.75575,14.6370625 13.373875,13.8808125 13.036375,13.0276875 C12.6995,12.1758125 12.531375,11.3326875 12.531375,10.4976875 C12.531375,8.7926875 13.133875,7.3489375 14.34075,6.1670625 C15.547625,4.9839375 17.020125,4.3926875 18.758875,4.3926875 C20.817,4.3926875 22.52075,5.1751875 23.868875,6.7408125 C25.217625,5.1751875 26.921375,4.3926875 28.9795,4.3926875" id="Fill-17" fill="#A0D5EE"></path>
            <path d="M14.963375,9.0344375 C16.10775,7.9119375 17.504625,7.3513125 19.154625,7.3513125 C21.10775,7.3513125 22.723375,8.0938125 24.003375,9.5788125 C25.28275,8.0938125 26.899,7.3513125 28.8515,7.3513125 C30.534625,7.3513125 31.949,7.9119375 33.093375,9.0344375 C33.795875,9.7225625 34.28025,10.5050625 34.5515,11.3794375 C34.635875,10.9788125 34.67775,10.5813125 34.67775,10.1844375 C34.67775,8.5675625 34.105875,7.1981875 32.960875,6.0763125 C31.8165,4.9538125 30.402125,4.3925625 28.719,4.3925625 C26.765875,4.3925625 25.15025,5.1356875 23.870875,6.6206875 C22.5915,5.1356875 20.97525,4.3925625 19.022125,4.3925625 C17.372125,4.3925625 15.97525,4.9538125 14.830875,6.0763125 C13.685875,7.1981875 13.114,8.5675625 13.114,10.1844375 C13.114,10.7581875 13.20025,11.3356875 13.36775,11.9175625 C13.59025,10.8225625 14.119625,9.8606875 14.963375,9.0344375" id="Fill-19" fill="#D0EAF7"></path>
            <path d="M18.759125,5.0176875 C17.176,5.0176875 15.8735,5.5395625 14.7785,6.6133125 C13.686625,7.6833125 13.156,8.9533125 13.156,10.4976875 C13.156,11.2495625 13.311,12.0233125 13.61725,12.7976875 C13.9385,13.6083125 14.30475,14.3358125 14.70725,14.9589375 C15.106625,15.5808125 15.806,16.4089375 16.786,17.4195625 C17.782875,18.4489375 18.64225,19.2908125 19.339125,19.9220625 L22.63975,22.9233125 L23.861625,23.9658125 L25.10475,22.8651875 C26.6235,21.5501875 27.73725,20.5633125 28.421,19.9270625 C29.09975,19.2964375 29.951625,18.4526875 30.952875,17.4195625 C31.93225,16.4089375 32.631625,15.5808125 33.031625,14.9595625 C33.436625,14.3308125 33.8135,13.6001875 34.151625,12.7883125 C34.472875,12.0158125 34.635375,11.2451875 34.635375,10.4976875 C34.635375,8.9533125 34.105375,7.6833125 33.0135,6.6133125 C31.9185,5.5395625 30.5985,5.0176875 28.97975,5.0176875 C27.09475,5.0176875 25.577875,5.7145625 24.342875,7.1483125 C24.2235,7.2864375 24.051,7.3658125 23.869125,7.3658125 C23.68725,7.3658125 23.514125,7.2864375 23.395375,7.1483125 C22.160375,5.7145625 20.644125,5.0176875 18.759125,5.0176875 M23.869125,25.4195625 C23.724125,25.4195625 23.580375,25.3695625 23.462875,25.2695625 L21.8135,23.8608125 L18.499125,20.8476875 C17.782875,20.1989375 16.904125,19.3376875 15.8885,18.2895625 C14.83725,17.2045625 14.106625,16.3364375 13.656,15.6358125 C13.210375,14.9445625 12.806625,14.1445625 12.455375,13.2583125 C12.091,12.3364375 11.906,11.4076875 11.906,10.4976875 C11.906,8.6258125 12.577875,7.0189375 13.902875,5.7208125 C15.225375,4.4251875 16.859125,3.7676875 18.759125,3.7676875 C20.764125,3.7676875 22.47975,4.4595625 23.869125,5.8264375 C25.2585,4.4595625 26.975375,3.7676875 28.97975,3.7676875 C30.91475,3.7676875 32.566625,4.4251875 33.8885,5.7208125 C35.2135,7.0189375 35.885375,8.6258125 35.885375,10.4976875 C35.885375,11.4108125 35.690375,12.3433125 35.305375,13.2676875 C34.939125,14.1483125 34.52725,14.9458125 34.082875,15.6364375 C33.63225,16.3364375 32.901625,17.2045625 31.84975,18.2895625 C30.834125,19.3376875 29.96725,20.1970625 29.271625,20.8426875 C28.577875,21.4889375 27.452875,22.4851875 25.9285,23.8058125 L24.2835,25.2626875 C24.16475,25.3670625 24.01725,25.4195625 23.869125,25.4195625" id="Fill-21" fill="#003366"></path>
            <path d="M39.375,5.6426875 L37.004375,5.6426875 C36.65875,5.6426875 36.379375,5.3633125 36.379375,5.0176875 C36.379375,4.6720625 36.65875,4.3926875 37.004375,4.3926875 L39.375,4.3926875 C39.720625,4.3926875 40,4.6720625 40,5.0176875 C40,5.3633125 39.720625,5.6426875 39.375,5.6426875" id="Fill-23" fill="#003366"></path>
            <path d="M34.9823125,3.620625 C34.6366875,3.620625 34.3573125,3.34125 34.3573125,2.995625 L34.3573125,0.625 C34.3573125,0.279375 34.6366875,0 34.9823125,0 C35.3279375,0 35.6073125,0.279375 35.6073125,0.625 L35.6073125,2.995625 C35.6073125,3.34125 35.3279375,3.620625 34.9823125,3.620625" id="Fill-25" fill="#003366"></path>
            <path d="M36.795625,3.8299375 C36.635625,3.8299375 36.475625,3.7686875 36.35375,3.6468125 C36.109375,3.4024375 36.109375,3.0074375 36.35375,2.7630625 L37.571875,1.5443125 C37.81625,1.2999375 38.211875,1.2999375 38.455625,1.5443125 C38.7,1.7880625 38.7,2.1836875 38.455625,2.4280625 L37.2375,3.6468125 C37.115625,3.7686875 36.955625,3.8299375 36.795625,3.8299375" id="Fill-27" fill="#003366"></path>
        </g>
    </g>
</svg>