<svg xmlns="http://www.w3.org/2000/svg" viewBox="0 0 298.5 224.65"><defs><style>.cls-1{isolation:isolate;}.cls-2{fill:#e1f1fb;mix-blend-mode:multiply;}.cls-3{fill:#fff;}.cls-4{fill:#c18072;}.cls-5{fill:#9a5e59;}.cls-6{fill:#58aa46;}.cls-7{fill:#1c3664;}.cls-8{fill:#27773b;}.cls-9{fill:#28773b;}.cls-10{fill:#15264f;}.cls-11{fill:#c08071;}.cls-12{fill:#985e58;}.cls-13{fill:#82514b;}.cls-14{fill:#0f0a09;}.cls-15{fill:#f1b99e;}.cls-16{fill:#d09582;}.cls-17{fill:#1f2c38;}.cls-18{fill:#b67574;}.cls-19{fill:#893727;}.cls-20{fill:#9b4336;}.cls-21{fill:#1f71b8;}.cls-22{fill:#174887;}.cls-23{fill:#3272b9;}.cls-24{fill:#184888;}.cls-25{fill:#a4cbec;}.cls-26{fill:#e1b8a3;}.cls-27,.cls-30{fill:#4c90cd;}.cls-28,.cls-29{fill:none;stroke-linecap:round;stroke-linejoin:round;}.cls-28,.cls-29,.cls-30{stroke:#4c90cd;}.cls-29{stroke-width:1.5px;}.cls-30{stroke-miterlimit:10;}</style></defs><title>faqs-illustration</title><g class="cls-1"><g id="Layer_1" data-name="Layer 1"><path class="cls-2" d="M35.9,25.42C17.25,26.67,2.11,40.55,2.11,59.21L.3,164.18c0,18.67,16.15,27.81,34.79,29.16C99.91,198,241.26,198,241.26,198a33.81,33.81,0,0,0,33.79-33.82s5.06-67.88,1.81-105c-1.63-18.59-15.14-34.46-33.79-33.79C176.39,27.84,98.74,21.22,35.9,25.42Z" transform="translate(-0.3 -2.67)"/><path class="cls-3" d="M184.18,122.66A23.31,23.31,0,0,0,173.43,113a1.1,1.1,0,0,1,0-2.07,23.31,23.31,0,0,0,10.75-9.64,1.33,1.33,0,0,1,2.3,0A23.31,23.31,0,0,0,197.23,111a1.09,1.09,0,0,1,0,2.07,23.31,23.31,0,0,0-10.75,9.64A1.32,1.32,0,0,1,184.18,122.66Z" transform="translate(-0.3 -2.67)"/><circle class="cls-3" cx="172.39" cy="122.94" r="2.28"/><path class="cls-4" d="M122.34,148.08c-3.52,11.67-4.58,36.17-4.89,42.44a10.4,10.4,0,0,0,1.68,4.5,20.4,20.4,0,0,0,4.5,4.24c-1.55-4.92,12.78-45,11.33-57.12-.61-5.23-1.31-10.59-2.2-15.62-.35-2.13-.76-4.21-1.22-6.18-.4-1.75-.8-3.43-1.28-5-.26-.93-4.67-19-4.67-19-6.76,6.68-14.06,6.18-16.7,6.41,0,0,5.45,18.18,5.45,18.21C117.38,130.42,120,139.73,122.34,148.08Z" transform="translate(-0.3 -2.67)"/><path class="cls-5" d="M113.34,121.27c2.63,8.47,19.41,5.25,19.41,5.25a106.37,106.37,0,0,0-2.83-12.35l-.5-1.59c-6.8,6.71-13.63,8-16.27,8.25Z" transform="translate(-0.3 -2.67)"/><path class="cls-5" d="M122.34,148.08c1.14-.06,2.26-.05,3.38-.05s2.23,0,3.37-.06a7.24,7.24,0,0,1-1.66.43,12.3,12.3,0,0,1-1.71.13A12.86,12.86,0,0,1,122.34,148.08Z" transform="translate(-0.3 -2.67)"/><path class="cls-6" d="M129.46,218.24,115,149.61s-.59-9.21,3.78-21.57a13.36,13.36,0,0,0,.64-6.34c8.59-1.59,11.35-10.25,11.35-10.25s-2.73-6.51-2.91-6.89-3.51-15.78-6.81-17.67c-2.24-1.3-9.68-3.16-14.31-4.25l-3.84-.86c.14,0-2.4,6-7.6,8.26a10.77,10.77,0,0,1-10.85-1.69c-2.5-2.3-4.15-7.06-4.14-7.07s-19.18,7.32-23,10S53.43,105.89,50.71,124a13.76,13.76,0,0,0,10.8,5.52,22,22,0,0,0,9-1.51c-.27.12-1.3,30.48-1.33,31.57A4.74,4.74,0,0,1,69,161c-.06.2-4.9,18.82-5.08,19.29-3.23,8.88-11.63,31.33-14.13,38C49.29,219.43,129.46,218.24,129.46,218.24Z" transform="translate(-0.3 -2.67)"/><path class="cls-7" d="M109.81,227.32c.41-.06.79-.15,1.06-.18v0C110.52,227.2,110.16,227.26,109.81,227.32Z" transform="translate(-0.3 -2.67)"/><path class="cls-8" d="M102.9,81.78c.14,0-2.4,6-7.6,8.26a10.77,10.77,0,0,1-10.85-1.69c-2.5-2.3-4.15-7.06-4.14-7.07s-19.18,7.32-23,10S53.43,105.89,50.71,124a13.76,13.76,0,0,0,10.8,5.52,22,22,0,0,0,9-1.51c-.27.12-1.3,30.48-1.33,31.57A4.74,4.74,0,0,1,69,161c-.06.2-4.9,18.82-5.08,19.29-3.23,8.88-11.63,31.33-14.13,38h58.63c-5.46-19.47-18-64.5-18.3-69.46C89.69,143.24,80,137.37,80,135.3c3.13.21,14.69,3.45,11.27-4.25-4.9-11,1.92-30.47,5.31-38.79l4.6,7s7.08-7.67,5.58-16.67Z" transform="translate(-0.3 -2.67)"/><path class="cls-9" d="M80.1,135.29c2.1.08,4.2.12,6.3.14s4.19,0,6.28-.1a56.51,56.51,0,0,0,6.24-.57l1.54-.27,1.52-.39c.5-.13,1-.35,1.47-.52a13.22,13.22,0,0,0,1.38-.75A13.4,13.4,0,0,1,99,135.14a49.38,49.38,0,0,1-6.29.69c-2.1.06-4.21.07-6.31,0S82.19,135.56,80.1,135.29Z" transform="translate(-0.3 -2.67)"/><path class="cls-9" d="M119.52,121.65c-.6-2-1.19-4-1.88-5.89a32.75,32.75,0,0,0-2.52-5.61,13.58,13.58,0,0,1,1.74,2.58,21.92,21.92,0,0,1,1.25,2.86,29.09,29.09,0,0,1,.87,3A22.66,22.66,0,0,1,119.52,121.65Z" transform="translate(-0.3 -2.67)"/><path class="cls-4" d="M89.09,215.61a10.63,10.63,0,0,1-1.48-1.16S87,215.69,86,215.76a2.22,2.22,0,0,1-1.26-.59s-1.12,1.47-2,1.63-2-1.07-2.3-1.37c0,0-1.08,1.66-2.15,1.56a13.63,13.63,0,0,1-3.74-2.08c-.44-.47-1.32-3.37-1.7-3.95-.9-1.38-2.64-5.53-2.08-8.81-.39-1.78-5.42-8-9.36-12.21s-16.78-26.3-17.22-28.22c-.87-3.75,7.33-36.85,7.33-36.85s4.86,4,10.19,4.74c1.9.27,6.88-.88,6.88-.88S61.48,155.91,60.9,159c0,0,7.42,12.12,9.57,19.55s6.28,14.85,8.52,16.07c2,1.07,7.1,2.56,8.19,3.67S90.62,202.48,91,203a23.32,23.32,0,0,0,2,1.63s1.87,6.86-2.16,6.16-1.37-4.44-1.37-4.44,1,4.38,2,5.48a3,3,0,0,0,.75.7,2.72,2.72,0,0,1-.69,2C90.69,215.16,89.63,215.75,89.09,215.61Z" transform="translate(-0.3 -2.67)"/><path class="cls-5" d="M87.83,214.57a3.37,3.37,0,0,1-.59.75,2.19,2.19,0,0,1-.83.53,1.22,1.22,0,0,1-1-.07,3.72,3.72,0,0,1-.77-.52h0L82,213.52l2.82,1.54h0a3.79,3.79,0,0,0,.74.44.89.89,0,0,0,.75,0,2.48,2.48,0,0,0,1.1-1.16Z" transform="translate(-0.3 -2.67)"/><path class="cls-5" d="M91.49,214.5a6.35,6.35,0,0,1-1.07.85,6,6,0,0,1-.62.31,1.38,1.38,0,0,1-.74.1h0a1.82,1.82,0,0,1-.47-.27l-.38-.3-.73-.61h0c-.85-1.25-1.7-2.5-2.44-3.81,1,1.16,1.85,2.38,2.72,3.6l0,0,.7.62.36.3a2.57,2.57,0,0,0,.33.23h0a2.13,2.13,0,0,0,1.2-.29A9.75,9.75,0,0,0,91.49,214.5Z" transform="translate(-0.3 -2.67)"/><path class="cls-5" d="M92.18,212.49a3.88,3.88,0,0,1-1.52-1.71,12.31,12.31,0,0,1-.8-2.17c-.35-1.49-.68-3-.9-4.49.5,1.45.85,2.93,1.24,4.4a15.74,15.74,0,0,0,.7,2.14A4.58,4.58,0,0,0,92.18,212.49Z" transform="translate(-0.3 -2.67)"/><path class="cls-5" d="M50.72,128c.59-3.13.75-3.13.75-3.13s7.39,4.72,10.19,4.74a30,30,0,0,0,6.88-.88s-.32,1.31-.91,3.57A16.11,16.11,0,0,1,50.72,128Z" transform="translate(-0.3 -2.67)"/><path class="cls-5" d="M78.24,217a13.63,13.63,0,0,1-3.74-2.08c-.44-.47-1.32-3.37-1.7-3.95-.9-1.38-2.64-5.53-2.08-8.81v-.05l-.07-.18c-.89-2.29-5.5-7.9-9.29-12-2.71-2.92-10-15.55-14.65-23.14,0,0,18.81,22.91,21.68,26.91l.27.37c1.5,1.95,4.09,2.85,4,6-.3,7,6.69,11.37,6.74,11.78,1.07,1.08.14,1.22-.38,1.23-1.22,0,1.42,2.33,1.42,2.33S79.31,217.09,78.24,217Z" transform="translate(-0.3 -2.67)"/><path class="cls-5" d="M53.91,161.72a14.52,14.52,0,0,0,1.88-.36,12,12,0,0,0,1.77-.62,13.2,13.2,0,0,0,3.21-1.92l-.05.08c.28-.79.57-1.57.9-2.34-.14.83-.34,1.64-.54,2.45v0l0,0a7.88,7.88,0,0,1-1.54,1.22,9.51,9.51,0,0,1-1.75.87,8.76,8.76,0,0,1-1.89.49A7.88,7.88,0,0,1,53.91,161.72Z" transform="translate(-0.3 -2.67)"/><path class="cls-10" d="M76.57,46.61c-5,1.11-3.92-6.2-3.92-6.2l4.27-.64A54.85,54.85,0,0,0,76.57,46.61Z" transform="translate(-0.3 -2.67)"/><path class="cls-11" d="M118.08,37.07a21.2,21.2,0,0,0-6.17-14.4,5.45,5.45,0,0,0-.46-.5c-8.15,8.57-34,17-34.53,17.6a58.83,58.83,0,0,0-.7,6.86c-.13,4.67.64,10.84,4.82,15.66.69.76,1.46,1.45,2.09,2.27A8.75,8.75,0,0,1,85,69.33c.18,2.55-.92,5-1.72,7.32l-2.93,6.84L83,86.64c3.63,6.73,14.91,5.79,18.9-2.63.28-.58-2.26-.55-2.26-.55.33-3.91.74-7.71,2.44-11,.14-.27.28-.51.42-.75a13.76,13.76,0,0,1,3.71-4.13c.11-.08.48-.33.49-.35C117.56,59.58,117.87,48.55,118.08,37.07Z" transform="translate(-0.3 -2.67)"/><path class="cls-12" d="M106.21,67.58a13.76,13.76,0,0,0-3.71,4.13c-.14.24-.28.48-.42.75-7.67,8.75-18,4.56-18.84,4.19.91-2.67,2.17-5.35,1.68-8.25a10.82,10.82,0,0,0-3.49-5.68c5.91,5.83,17.63,8.56,17.63,8.56C100.42,71.49,104.73,68.62,106.21,67.58Z" transform="translate(-0.3 -2.67)"/><path class="cls-12" d="M111.53,23.38C109,27.92,97.76,46.31,76.6,46.61h0c-5,1.11-3.92-6.2-3.92-6.2l4.27-.64s1.61-.42,2.18-.49c5.72-.77,19.59-4.46,32.21-15.86A.25.25,0,0,1,111.53,23.38Z" transform="translate(-0.3 -2.67)"/><path class="cls-10" d="M109,10.34a.5.5,0,0,1-.07-.88c.29-.14.13-.05.22-.08h.33l.28,0,.54.07c.36,0,.71.11,1.06.18.7.14,1.39.3,2.08.49a29.88,29.88,0,0,1,4,1.43,22.91,22.91,0,0,1,7,4.77,18.12,18.12,0,0,1,4.38,7.26,23.18,23.18,0,0,1,.93,8.4,47.21,47.21,0,0,1-4.53,16.14A107,107,0,0,1,117,62.73a106.8,106.8,0,0,0,8-14.69A46.88,46.88,0,0,0,129.31,32a22.36,22.36,0,0,0-1-8.18A17.42,17.42,0,0,0,124,16.87a21.58,21.58,0,0,0-6.85-4.49,26.47,26.47,0,0,0-3.91-1.33q-1-.27-2-.45c-.34-.06-.67-.11-1-.15l-.5-.06-.25,0h-.12l.19-.08a.49.49,0,0,0-.07-.86Z" transform="translate(-0.3 -2.67)"/><path class="cls-13" d="M106,58.56c-.17.28-1.13.56-1.19.56a20.22,20.22,0,0,1-6,.78A16.15,16.15,0,0,1,96,59.59a14.13,14.13,0,0,1-4.86-1.83,4.38,4.38,0,0,1-.9-.72c3.88,2.16,6.29.17,8.26,1.36C100.53,57.54,102.94,59.69,106,58.56Z" transform="translate(-0.3 -2.67)"/><path class="cls-3" d="M105.14,59A8,8,0,0,1,98,62.25c-5-.29-7.35-4.83-7.35-4.83S95.93,61.67,105.14,59Z" transform="translate(-0.3 -2.67)"/><path class="cls-12" d="M105.13,59.05c-3.23,7.34-10.17,9-14.37-1.49h0c.5.83,2.83,4.41,7.25,4.69A8.05,8.05,0,0,0,105.13,59.05Z" transform="translate(-0.3 -2.67)"/><path class="cls-14" d="M93.78,40.3A3.08,3.08,0,0,1,94,42.16a2.92,2.92,0,0,1-1.33,2.07,6.31,6.31,0,0,1-2-.18,2.81,2.81,0,0,1-.79-2.66,3.28,3.28,0,0,1,.94-1.74c-2.82,0-3.75.9-5,.86S84,38.73,84,38.73a2.08,2.08,0,0,0,1.94.81c-.37,0-.79-.9-.79-.9a4.4,4.4,0,0,0,2.27.17,19.89,19.89,0,0,1,3.83-.62,4.66,4.66,0,0,1,4.34,3.69A4.27,4.27,0,0,0,93.78,40.3Z" transform="translate(-0.3 -2.67)"/><path class="cls-14" d="M116.4,41.41s-.73,1.65-2.09,1.5c-1.11-.12-1.84-.92-3.93-1.37a3.19,3.19,0,0,1,.51,2.13,2.37,2.37,0,0,1-1,1.88,7.54,7.54,0,0,1-2.27.2l-.08,0a.2.2,0,0,1-.17,0,3.34,3.34,0,0,1-.73-2.51,3,3,0,0,1,.94-1.89,4.9,4.9,0,0,0-3.3,1.66s1.38-3.53,5-3.12A18.41,18.41,0,0,1,113,41a4.7,4.7,0,0,0,2.28.12s-.53.79-.88.82A2.2,2.2,0,0,0,116.4,41.41Z" transform="translate(-0.3 -2.67)"/><path class="cls-14" d="M104.23,38c.08-.42,1.81-3.69,6.83-3.12,2.29.26,4.66,2.67,4.66,2.67s-3.5-1.58-5.22-1.23S104,39.51,104.23,38Z" transform="translate(-0.3 -2.67)"/><path class="cls-12" d="M102.06,51.64S99.54,53,96,51.15C96,51.15,99,56.34,102.06,51.64Z" transform="translate(-0.3 -2.67)"/><path class="cls-12" d="M103,41.29a6,6,0,0,0-.69,4.29S100.51,43.7,103,41.29Z" transform="translate(-0.3 -2.67)"/><path class="cls-14" d="M85.38,34.77c.38-.11,3.78-1,5.32-.49s5.93,4.08,5.9,2.54a11.65,11.65,0,0,1,0-1.32.59.59,0,0,0-.31.48c-.58-1.16-2.18-3.09-5.93-3.18C88.27,32.73,85.77,34.47,85.38,34.77Z" transform="translate(-0.3 -2.67)"/><path class="cls-10" d="M111.37,86C125.07,75.88,115,65,117,62.73c10.86-12.26,17.23-49-4.15-52.54C100-6,66.83,7,68,26.77c.61,10.28-.39,6.63-8,11.14C47.24,45.49,50.23,60.2,50,70.38c-.15,6.33-2.84,24.76-16.16,19.89,0,0,16.09,27.23,31.47,1.91,1.45-2.38,6.81-5.52,11.22-6.61,1.65.13,4.56-1.2,4.92-1.17.57-1.67,2.15-8.83,2.78-10.51,1.49-4,1.17-7.3-2.16-10.51-7.32-7.09-5.27-21.84-5.13-23.6,0,0,1.61-.43,2.18-.5,5.72-.77,19.59-4.46,32.21-15.86.81-.76,6.09,6.07,6.15,12.87.11,11.47.09,23.3-10.76,30.94-5.85,4.12-6.52,10-7.06,16.23" transform="translate(-0.3 -2.67)"/><path class="cls-10" d="M53.36,54.08Q52.49,59.59,51.25,65a104.08,104.08,0,0,1-3,10.7,43,43,0,0,1-2.14,5.15,11.86,11.86,0,0,1-3.41,4.45A3.37,3.37,0,0,1,37.78,84a2.5,2.5,0,0,1,.93-2.55A2.75,2.75,0,0,1,40,80.84a1.57,1.57,0,0,1,1.31.29,1.54,1.54,0,0,0-1.3-.24,2.64,2.64,0,0,0-1.18.65,2.32,2.32,0,0,0-.79,2.4,2.89,2.89,0,0,0,2,1.53A2.77,2.77,0,0,0,42.48,85a11.53,11.53,0,0,0,3.11-4.36,42.34,42.34,0,0,0,1.93-5.14,102.42,102.42,0,0,0,2.62-10.7c.69-3.6,1.28-7.24,1.74-10.87Z" transform="translate(-0.3 -2.67)"/><path class="cls-12" d="M76.57,46.61c-5,1.11-3.92-6.2-3.92-6.2l4.27-.64Z" transform="translate(-0.3 -2.67)"/><path class="cls-12" d="M99.26,24.46s-6.79,8.21-18,8.92C81.28,33.38,98.27,25.93,99.26,24.46Z" transform="translate(-0.3 -2.67)"/><path class="cls-15" d="M153,78.53c1,1.5,4.81,9.33,13.35,8.39,0,0,1.67,5.46,2.73,8.78a2.57,2.57,0,0,1-.94,2.9c.12.23,3.14,10.21,11.8,9.52,8.49-.68,15-11.15,15.28-12.44-1.34-.45-4.39-3.89-4.8-5.13-.08-.25-.91-3.35-.84-3.36a8.42,8.42,0,0,1-2.5.11S184.63,73.61,184.85,66a3.45,3.45,0,0,0,3.81,1.22c2.71-.58,3.58-13.24-2-10.07,0,0-2.86-13.91-8.91-19.91l-1.88-.71-4.4-1.66a40.42,40.42,0,0,0-23.22,21.61c-.05.13-.12.25-.17.38s0,.25,0,.39C148.21,61.51,150.79,75.23,153,78.53Z" transform="translate(-0.3 -2.67)"/><path class="cls-16" d="M167.65,91.05l-1.25-4.13s5.7-.29,14.63-6.28C181,80.64,180.17,88.75,167.65,91.05Z" transform="translate(-0.3 -2.67)"/><path class="cls-16" d="M148.36,59.43c8.88-17.26,20.73-20,25.94-21.17,0,0-1.06-1.41-1.45-1.85s-1.42-1.51-1.42-1.51a40.41,40.41,0,0,0-23.22,21.61A7.4,7.4,0,0,0,148.36,59.43Z" transform="translate(-0.3 -2.67)"/><path class="cls-17" d="M167.34,56.79a3.32,3.32,0,0,0-.16,1.8,2.94,2.94,0,0,0,1.18,2,5.39,5.39,0,0,0,1.8-.17,2.8,2.8,0,0,0,.64-2.52,3.17,3.17,0,0,0-.82-1.69c2.48,0,3.29.89,4.41.84s1.55-1.69,1.55-1.69c-.93,1-1.7.78-1.7.78.32,0,.67-.88.67-.88a3.43,3.43,0,0,1-2,.17,16.09,16.09,0,0,0-3.34-.62c-3,.09-3.74,3.15-3.81,3.55A4.07,4.07,0,0,1,167.34,56.79Z" transform="translate(-0.3 -2.67)"/><path class="cls-17" d="M147.57,57.76s.64,1.58,1.83,1.45c1-.1,1.59-.87,3.44-1.31A3.33,3.33,0,0,0,152.4,60a2.41,2.41,0,0,0,.87,1.81,6.07,6.07,0,0,0,2,.19h.07a.2.2,0,0,0,.15,0,3.41,3.41,0,0,0,.62-2.38,3.19,3.19,0,0,0-.84-1.85,4.28,4.28,0,0,1,2.89,1.62s-1.23-3.35-4.4-3a17.72,17.72,0,0,0-3.2,1.09,3.47,3.47,0,0,1-2,.12s.49.8.81.76C149.37,58.28,148.64,58.63,147.57,57.76Z" transform="translate(-0.3 -2.67)"/><path class="cls-17" d="M158.18,54.54c-.07-.39-1.61-3.53-6-3-2,.24-4.06,2.53-4.06,2.53s3-1.49,4.56-1.15S158.45,56,158.18,54.54Z" transform="translate(-0.3 -2.67)"/><path class="cls-16" d="M159.27,57.71a6.27,6.27,0,0,1,.65,4.1S161.49,60,159.27,57.71Z" transform="translate(-0.3 -2.67)"/><path class="cls-17" d="M174.66,51.56c-.33-.11-3.32-1-4.66-.49s-5.16,3.87-5.15,2.4a10.61,10.61,0,0,0,0-1.26.57.57,0,0,1,.27.46c.5-1.11,1.88-2.94,5.16-3C172.11,49.6,174.32,51.27,174.66,51.56Z" transform="translate(-0.3 -2.67)"/><path class="cls-18" d="M156.67,73.65c.14.24,1,.49,1,.49a17.59,17.59,0,0,0,5.17.7,12.28,12.28,0,0,0,2.47-.25A11.92,11.92,0,0,0,169.56,73a4.17,4.17,0,0,0,.79-.61c-3.38,1.85-5.45.11-7.17,1.13C161.44,72.79,159.34,74.64,156.67,73.65Z" transform="translate(-0.3 -2.67)"/><path class="cls-3" d="M157.44,74.07a7,7,0,0,0,6.14,2.82c4.31-.23,6.39-4.15,6.39-4.15S165.4,76.4,157.44,74.07Z" transform="translate(-0.3 -2.67)"/><path class="cls-16" d="M157.45,74.08c2.75,6.37,8.76,7.84,12.46-1.22h0a8.17,8.17,0,0,1-6.3,4A7,7,0,0,1,157.45,74.08Z" transform="translate(-0.3 -2.67)"/><path class="cls-16" d="M160.14,67.68a6,6,0,0,0,5.29-.4S162.76,71.76,160.14,67.68Z" transform="translate(-0.3 -2.67)"/><path class="cls-19" d="M151.82,90.61c5.15,5.58,16.33,2,16.33,2l-1.75-5.68c-8.55.93-12.33-6.89-13.35-8.39-2.33-3.42-5-18-5-21.65a40.45,40.45,0,0,1,23.39-22c2.54,2.58,9.63,11,13.86,27.91,0,0,1.44-10.7-7.57-25.56,6,6,8.9,19.93,8.9,19.93,5.62-3.17,4.75,9.49,2,10.08A3.46,3.46,0,0,1,184.85,66c-.26,9.11,2.26,21.29,2.26,21.29,1.53.3,3.42-.32,4.89-.75s1.47-8.12,1.47-8.12c1.35,1.34,2.33,6.39,2.33,6.39,2.14-1.1,9.66-8.61,11.62-12.18s-2-21.34-5.57-35.64-15.5-11.89-15.5-11.89c-8.76-5.83-33.2-4.07-39.18,17.3S146.66,85,151.82,90.61Z" transform="translate(-0.3 -2.67)"/><path class="cls-20" d="M176.34,34.64a16.72,16.72,0,0,1,2.19-2.18,22.59,22.59,0,0,1,2.66-2,24.47,24.47,0,0,1,2.93-1.61,26,26,0,0,1,3.15-1.23,25.35,25.35,0,0,0-3.32.77,25.4,25.4,0,0,0-6.29,2.84,18.82,18.82,0,0,0-2.77,2.07Z" transform="translate(-0.3 -2.67)"/><path class="cls-16" d="M188.4,92.6a18.77,18.77,0,0,0,2.09,3.68c1.09-1.31,1.55-1.68,1.36-3.63l-1.45-2.38a31,31,0,0,1-.78-3.09,8.1,8.1,0,0,1-2.51.13A30.41,30.41,0,0,0,188.4,92.6Z" transform="translate(-0.3 -2.67)"/><path class="cls-16" d="M187.06,59.27a6.41,6.41,0,0,1,.88,2.63,6.15,6.15,0,0,1-.9,2.59,5.46,5.46,0,0,0,.84-.27,5.12,5.12,0,0,0,.7-.55,2.45,2.45,0,0,0,.75-1.78,2.54,2.54,0,0,0-.74-1.77A2.67,2.67,0,0,0,187.06,59.27Z" transform="translate(-0.3 -2.67)"/><path class="cls-21" d="M151.53,173.69l-11,44.55h71.39l-7.83-34.37-.44-3.59.41-11,.89-23.68a22.47,22.47,0,0,0,19.87-3.89l0-.06c-3.09-32.88-5.67-39.77-16.13-39.77-3.95-3.43-16.9-9.27-16.9-9.27-2.06,7.4-8.69,10.24-16.87,11.55,0,0,0,0-.06,0-4.36-2.69-6.65-11.18-6.65-11.18s-13.15,5.75-16.47,7.73c-9.51,5.65-15.55,10.24-12.18,42.48l4.73,2.22A200.43,200.43,0,0,0,151.53,173.69Z" transform="translate(-0.3 -2.67)"/><path class="cls-22" d="M173.28,152.46c5.67,1.64,11.49,3.34,15.86,4.73a142.53,142.53,0,0,1,13.57,5.12,8.45,8.45,0,0,0,1.61.58v-.19l.64-17.06a22.55,22.55,0,0,0,18.48-2.86,16.26,16.26,0,0,0,1.39-1l0-.06c-3.09-32.88-5.67-39.77-16.13-39.77-3.95-3.43-16.9-9.27-16.9-9.27-2.06,7.4-8.69,10.24-16.87,11.55,0,0,0,0-.06,0,3.67,6.12,15.33,26.45,14.08,37.52C188,151,178.57,152.38,173.28,152.46Z" transform="translate(-0.3 -2.67)"/><path class="cls-22" d="M153.11,159.16c7.65,7,31.06,31.45,38.12,59.61l20.72-.54-8.07-36.17,0,0C179,177.8,158.4,163.36,153.11,159.16Z" transform="translate(-0.3 -2.67)"/><path class="cls-22" d="M166.53,171.47l-.38,11.84c-.12,3.95-.21,7.89-.19,11.84s.11,7.88.32,11.82.53,7.87,1,11.8c-.64-3.9-1.08-7.83-1.37-11.78s-.4-7.89-.43-11.84.11-7.91.31-11.85S166.25,175.41,166.53,171.47Z" transform="translate(-0.3 -2.67)"/><path class="cls-22" d="M168,127.4a22.66,22.66,0,0,0-1.63,3,29.41,29.41,0,0,0-1.29,3.13,25.64,25.64,0,0,0-1.38,6.58,15.74,15.74,0,0,0-.08,1.68l.05,1.68c.05.56.15,1.11.22,1.67a10.16,10.16,0,0,0,.34,1.64,23.87,23.87,0,0,0,2.54,6.25,20.44,20.44,0,0,1-2.91-6.15l-.25-.82c-.07-.28-.09-.57-.14-.85-.08-.57-.2-1.13-.25-1.7a23.24,23.24,0,0,1,0-3.44,24.58,24.58,0,0,1,1.52-6.67A24.83,24.83,0,0,1,168,127.4Z" transform="translate(-0.3 -2.67)"/><path class="cls-16" d="M139.62,143.2l5.48,56.55,6.43-26.06a.26.26,0,0,0-.06-.14,205.11,205.11,0,0,1-7.12-28.13Z" transform="translate(-0.3 -2.67)"/><path class="cls-22" d="M171,210c0,.79.64,1.77,1.43,1.77A1.88,1.88,0,0,0,174,210a1.75,1.75,0,0,0-1.58-1.63A1.59,1.59,0,0,0,171,210Z" transform="translate(-0.3 -2.67)"/><path class="cls-22" d="M168,138.44c0,.78.64,1.77,1.43,1.77a1.88,1.88,0,0,0,1.57-1.76,1.74,1.74,0,0,0-1.57-1.62A1.59,1.59,0,0,0,168,138.44Z" transform="translate(-0.3 -2.67)"/><path class="cls-22" d="M172.37,189.52c-.79,0-1.77.64-1.76,1.43a1.87,1.87,0,0,0,1.76,1.57,1.74,1.74,0,0,0,1.62-1.58A1.6,1.6,0,0,0,172.37,189.52Z" transform="translate(-0.3 -2.67)"/><path class="cls-23" d="M140.5,139.82l-12.1-.27a1.28,1.28,0,0,1-1.13-.73l-12.2-25.21a1.3,1.3,0,0,1,1.18-1.86l10.3.08a3.69,3.69,0,0,1,3.29,2.07l11.85,24A1.3,1.3,0,0,1,140.5,139.82Z" transform="translate(-0.3 -2.67)"/><path class="cls-24" d="M137.68,129.81l4,8.14a1.3,1.3,0,0,1-1.19,1.87l-12.1-.27a1.28,1.28,0,0,1-1.13-.73l-7.06-14.6S132.73,135.74,137.68,129.81Z" transform="translate(-0.3 -2.67)"/><ellipse class="cls-25" cx="118.6" cy="115.5" rx="1.22" ry="1.67" transform="translate(-37.39 56.56) rotate(-24.37)"/><ellipse class="cls-25" cx="120.7" cy="115.25" rx="0.38" ry="0.53" transform="translate(-37.1 57.4) rotate(-24.37)"/><path class="cls-15" d="M124.49,133.07s6.12,17.42,18.11,20.45c0,0,6.7,2.28,9.4,4.75s33.24,25.74,67.1,25c0,0,5.81-16,4.34-40.45A22.55,22.55,0,0,1,205,145.64l-.64,17.06v.19a8.45,8.45,0,0,1-1.61-.58,142.53,142.53,0,0,0-13.57-5.12c-4.37-1.39-10.19-3.09-15.86-4.73-10.15-2.92-19.83-5.59-19.83-5.59s-13.19-22-15.94-25.84a6.57,6.57,0,0,0-.89,5.64c1,3,4.89,11.21,4.89,11.21S135.67,140,124.49,133.07Z" transform="translate(-0.3 -2.67)"/><path class="cls-16" d="M223.5,157.47a131.48,131.48,0,0,0-.06-14.69A22.55,22.55,0,0,1,205,145.64l-.22,6.09s5.07,5,9.47,5.74A25.07,25.07,0,0,0,223.5,157.47Z" transform="translate(-0.3 -2.67)"/><path class="cls-26" d="M142.59,153.53a22.3,22.3,0,0,1,5,1.55,18.46,18.46,0,0,1,4.41,2.81c1.34,1.1,2.68,2.18,4,3.23s2.79,2,4.2,3a49.18,49.18,0,0,1-4.42-2.74c-1.43-1-2.78-2.08-4.14-3.15a19.22,19.22,0,0,0-4.26-2.85A32.6,32.6,0,0,0,142.59,153.53Z" transform="translate(-0.3 -2.67)"/><path class="cls-16" d="M199.22,160.84a15.54,15.54,0,0,1,4.16,1.71,15.7,15.7,0,0,1,3.53,2.82,19.66,19.66,0,0,1,2.57,3.71,27.23,27.23,0,0,1,1.84,4.09c-.68-1.33-1.39-2.64-2.17-3.9a21.86,21.86,0,0,0-2.61-3.56,17.26,17.26,0,0,0-3.36-2.84A21.13,21.13,0,0,0,199.22,160.84Z" transform="translate(-0.3 -2.67)"/><path class="cls-27" d="M232.84,219H7.29a.74.74,0,0,1-.74-.74.75.75,0,0,1,.74-.75H232.84a.75.75,0,0,1,.74.75A.74.74,0,0,1,232.84,219Z" transform="translate(-0.3 -2.67)"/><path class="cls-28" d="M262.9,79.38a20.57,20.57,0,1,1-5.08,19.36,20.91,20.91,0,0,1-.64-5.89" transform="translate(-0.3 -2.67)"/><path class="cls-28" d="M257.77,88.71a21.39,21.39,0,0,1,.92-2.84" transform="translate(-0.3 -2.67)"/><path class="cls-29" d="M282.16,89.15c-.1-1.22-.71-4.14-4.22-4.14-3.89,0-4.67,2.64-4.2,4.72.37,1.67,1.36,2.7,4.25,3.83s4.53,2.21,4.19,5.42a3.89,3.89,0,0,1-4.19,3.48c-1.3,0-4.75-.51-4.75-4.5" transform="translate(-0.3 -2.67)"/><line class="cls-29" x1="277.65" y1="82.34" x2="277.65" y2="79.02"/><line class="cls-29" x1="277.65" y1="103.11" x2="277.65" y2="99.79"/><path class="cls-28" d="M262.58,62.92c-.73.4-1.48.78-2.24,1.13a31.86,31.86,0,1,1,16.4-17.23" transform="translate(-0.3 -2.67)"/><path class="cls-28" d="M274.15,51.93a32.25,32.25,0,0,1-4,5.18" transform="translate(-0.3 -2.67)"/><path class="cls-30" d="M240,22a11.7,11.7,0,0,1,.93-.75,9.88,9.88,0,0,1,1.64-1,9.47,9.47,0,0,1,4.24-.94,9,9,0,0,1,2.91.46,7.35,7.35,0,0,1,2.38,1.32,6.33,6.33,0,0,1,1.63,2.1,6.21,6.21,0,0,1,.61,2.79,7.16,7.16,0,0,1-.52,2.88A7.86,7.86,0,0,1,252.55,31a10.78,10.78,0,0,1-1.72,1.6l-1.72,1.3a10.54,10.54,0,0,0-1.37,1.22,2.23,2.23,0,0,0-.6,1.37l-.24,7.21a.77.77,0,0,1-.79.64.62.62,0,0,1-.68-.64l-.1-7.36V36.2a2.51,2.51,0,0,1,.53-1.58,7.76,7.76,0,0,1,1.31-1.32c.52-.43,1.08-.86,1.69-1.3a11.42,11.42,0,0,0,1.7-1.49,7.55,7.55,0,0,0,1.31-1.9,5.77,5.77,0,0,0,.53-2.55,4.9,4.9,0,0,0-.46-2.13,4.74,4.74,0,0,0-1.26-1.58,5.77,5.77,0,0,0-1.83-1A6.72,6.72,0,0,0,246.7,21a7.59,7.59,0,0,0-2.52.38,9.18,9.18,0,0,0-1.8.86,10.42,10.42,0,0,0-1.14.86.74.74,0,0,1-1.18-.07s.41.66-.1-.15A.8.8,0,0,1,240,22Zm4,29.74a2.09,2.09,0,0,1,.15-.79,1.94,1.94,0,0,1,.43-.65,2,2,0,0,1,.64-.44,1.91,1.91,0,0,1,.8-.17,2,2,0,0,1,.8.17,2,2,0,0,1,.64.44,2,2,0,0,1,.44.65,1.93,1.93,0,0,1,.17.79,2,2,0,0,1-.61,1.44,1.85,1.85,0,0,1-.64.43,2.15,2.15,0,0,1-.8.16,2,2,0,0,1-2-2Z" transform="translate(-0.3 -2.67)"/></g></g></svg>